<svg xmlns="http://www.w3.org/2000/svg" width="160" height="40" fill="none"><path fill="#CE253D" d="M33.2 9.8v13.3c0 5.4-4.4 9.8-9.9 9.8H10C4.4 32.9 0 28.5 0 23V9.8C0 4.4 4.4 0 10 0h13.3c5.5 0 10 4.4 10 9.8zM27 20.4v.1c0 .6-.4 1.1-1 1.1-.4 0-.8 0-1.1-.5-.3-.4-.7-.9-1-1.8L27.6 6h-5.5l-1 4.5c-.3-1-1-2.1-1.9-2.8a7.1 7.1 0 0 0-5-2c-2.8 0-5.1 1-7 3-1.8 2-2.8 4.5-2.8 7.3 0 3.2 1 5.7 2.8 7.7a9 9 0 0 0 7.2 3c1.7 0 3.4-.6 4.8-1.6 1-.6 1.9-1.5 2.8-2.8.3 1.2.7 2 1.1 2.6.7 1 1.8 1.5 3 1.5s2.2-.6 2.7-1.5c.5-.8.7-1.8.7-3.7v-1l-2.6.1zm-9 2c-.9 1.3-1.9 1.9-3.1 1.9-1.5 0-2.5-.6-3.3-2-.9-1.3-1.3-3.3-1.3-6 0-2.4.4-4.4 1.4-5.7a3.5 3.5 0 0 1 3.2-1.8c1.2 0 2.1.5 3 1.6.9 1.1 1.6 3 2.1 5.6a16 16 0 0 1-2 6.4zM49.9 6.7C49.4 5 48.4 4 46 4c-2.1 0-3.4 1.1-3.8 2.8l-1.6 7.6h1.8a1 1 0 0 0 1-.7l.3-1.6h4.8l.3 1.6c.1.4.5.7 1 .7h1.8L50 6.7zM44.2 10l.6-2.8c0-.4.4-1 1.2-1 1 0 1.3.6 1.4 1L48 10h-3.8zM56 6.4V11c0 2.2-1.3 3.5-3 3.5h-.5l-.5-2.2h.5c.6-.2 1-.6 1-1.3V5.6c0-.8.7-1.5 1.5-1.5h7.6v10.2h-2.5V6.4H56zm28.4-2.2h-.9V3H82c-.5 0-.8.3-.8.7V4h-.9c-3 0-5 2-5 5s2 5.2 5 5.2h1v1.2h1.7c.4 0 .7-.3.7-.7v-.5h1c3 0 5-2 5-5.1 0-2.9-2-5-5-5zm-4.3 8c-1.7 0-2.6-1-2.6-3 0-1.8.9-2.8 2.6-2.8h1v5.7h-1zm4.3 0h-.9V6.3h1c1.7 0 2.5 1 2.5 2.9 0 1.7-.8 2.8-2.6 2.8zm-14-5.5h-3.6V4.2h-2.6v9.5c0 .4.3.7.7.7h5.4c2.2 0 3.8-1.6 3.8-3.8.1-2.2-1.2-3.9-3.7-3.9zm0 5.3h-3.6V9h3.6c.6 0 1.3.5 1.3 1.5s-.7 1.5-1.3 1.5zM99 6.7C98.6 5 97.5 4 95.2 4c-2.2 0-3.4 1.1-3.8 2.8l-1.8 7.6h1.9a1 1 0 0 0 .9-.7l.3-1.6h4.8l.4 1.6c0 .4.5.7.9.7h1.8L99 6.7zM93.3 10l.6-2.8c0-.4.4-1 1.3-1 .8 0 1.2.6 1.3 1l.6 2.8h-3.8zm20.4 13.4c.4-.4.7-1 .7-1.9 0-1.8-1.5-3-3.2-3H105c-.4 0-.7.3-.7.7v8.7c0 .4.3.7.7.7h6.5a3 3 0 0 0 3.2-3.2c0-.8-.4-1.5-1-2zm-2.6-2.8c.3 0 .8.4.8 1s-.4 1-.8 1h-4.5v-2h4.5zm.2 6h-4.7v-2h4.7c.3 0 .8.4.8 1s-.5 1-.8 1zm-14.4-8.3a5 5 0 0 0-5.2 5.3 5 5 0 0 0 5.2 5.3h1a5 5 0 0 0 5.2-5.3 5 5 0 0 0-5.2-5.3h-1zm-2.4 5.3c0-1.9.9-3.3 2.7-3.3h.6c1.7 0 2.7 1.4 2.7 3.3 0 1.8-.9 3.2-2.7 3.2h-.6c-1.8 0-2.7-1.4-2.7-3.2zM50 18.5h9.6l-.3 1.5a1 1 0 0 1-1 .7h-2.2v8h-2.6v-8H51a1 1 0 0 1-1-.7l-.1-1.5zm85 0h2.5v10.2h-2.6v-4h-4.8v4h-2.6V18.5h2.6v4h4.8v-4zM79.2 21c-.4-1.7-1.5-2.8-3.8-2.8-2.2 0-3.4 1-3.9 2.8L70 28.7h1.8a1 1 0 0 0 1-.7l.3-1.6h4.8l.3 1.6c.1.4.6.7 1 .7h1.8L79.3 21zm-5.8 3.2l.6-2.8c.1-.4.4-1 1.4-1 .9 0 1.2.6 1.3 1l.6 2.8h-3.9zm51-3.2c-.3-1.7-1.4-2.8-3.7-2.8-2.2 0-3.4 1-3.8 2.8l-1.8 7.6h1.9a1 1 0 0 0 .9-.7l.3-1.6h4.8l.4 1.6c0 .4.5.7.9.7h1.8l-1.6-7.6zm-5.6 3.2l.6-2.8c.1-.4.4-1 1.4-1s1.2.6 1.3 1l.6 2.8H119zm-68.1 4.4h-5c-3 0-5-2-5-5.1 0-3 2-5.1 5-5.1h3.7l-.3 1.5a1 1 0 0 1-.9.7h-2.5c-1.6 0-2.5 1.1-2.5 2.8 0 1.6.9 2.7 2.5 2.7h3.6c.5 0 .9.3 1 .7l.4 1.8zm15.6-10.2H61c-.4 0-.7.3-.7.7v9.5h2.6V26h3.6c2.5 0 3.8-1.6 3.8-3.8a3.9 3.9 0 0 0-4-3.7zm0 5.4h-3.6v-3h3.6c.6 0 1.3.4 1.3 1.4S67 24 66.4 24zm92.4 2.6c.4 0 .8.2.9.7l.3 1.5h-8.5a.7.7 0 0 1-.7-.7v-8.7c0-.4.3-.7.7-.7h8.5l-.3 1.4c-.1.5-.5.7-1 .7h-5.4v2h5.9v1.9h-6v2h5.6zM139 28.7V18.5h2.6v6.7l4.4-6.1c.2-.3.8-.6 1.2-.6h1.9v10.2h-2.6v-6.8l-4.4 6.2c-.2.3-.8.6-1.2.6h-1.9zm-50.5-5.1l3.6 5.2h-2.4c-.5 0-.8-.1-1.1-.6l-2-3h-.3l-1.9 2.9c-.3.5-.6.6-1 .6H81l3.5-5-3.6-5.2h2.4c.5 0 .8 0 1.1.6l1.9 2.8h.3l1.9-2.8c.3-.5.7-.6 1.1-.6H92l-3.4 5zM41 36.6c0-1.4 1-2.6 2.5-2.6.6 0 1 0 1.4.4l-.3.5c-.3-.2-.6-.3-1-.3-1.2 0-1.8 1-1.8 2s.6 1.9 1.8 1.9c.5 0 .9-.2 1.1-.4l.3.5c-.2.2-.8.5-1.5.5a2.5 2.5 0 0 1-2.5-2.6zm4.8-2.5h2.6v.6h-2V36h1.8v.5h-1.7v1.8h2v.6h-2.7v-5zm3.9 0H51c1 0 1.7.5 1.7 1.4 0 1-.7 1.5-1.8 1.5h-.5v2h-.7v-5zm1.2 2.3c.8 0 1.1-.3 1.1-.9 0-.5-.3-1-1.1-1h-.6v2h.6zm2.8-2.3H55c1 0 1.7.3 1.7 1.2 0 .6-.3 1-1 1 .7.1 1 .5 1 1.3 0 1-.8 1.3-1.8 1.3h-1.2V34zm1.3 2c.7 0 1-.2 1-.8 0-.5-.3-.7-1-.7h-.6V36h.6zm0 2.4c.8 0 1.2-.2 1.2-.8 0-.7-.3-1-1.2-1h-.7v1.8h.7zm3-4.4h.6v4l.5-.8 2.2-3.1h.6V39h-.6V35l-.4.6-2.4 3.4H58l.1-5zm5 2.4c0-1.3 1-2.5 2.5-2.5.7 0 1 0 1.5.4l-.3.5c-.3-.2-.6-.3-1-.3-1.2 0-1.8 1-1.8 2s.6 1.9 1.8 1.9c.5 0 .9-.2 1-.4l.4.5c-.2.2-.8.5-1.6.5a2.5 2.5 0 0 1-2.4-2.6zm6.6-2.4h2.8v.6h-2.1V36h.8c1 0 1.8.5 1.8 1.5 0 .9-.7 1.5-1.9 1.5h-1.3v-5h-.1zm1.3 4.3c.8 0 1.2-.3 1.2-1 0-.5-.4-.9-1.2-.9h-.7v1.9h.7zm2.7.5l.1-.5h.2c.4 0 .6-.2 1-.8v-.4L73.5 34h.6l1.2 2.6 1-2.6h.7l-1.7 3.9c-.4.8-.8 1-1.5 1 0 .2-.1.2-.2 0zm3.4-.5h.4c.4-.3.5-.8.6-1.9l.2-2.5h3v4.3h.5l-.2 1.7h-.4v-1h-3.3v1h-.5l-.3-1.6zm3.5 0v-3.8H79l-.2 2c-.1 1-.3 1.5-.6 1.8h2.3zm2 .5v-.5h.3c.4 0 .6-.2 1-.8v-.4L82.4 34h.6l1.1 2.6 1.2-2.6h.6L84 37.8c-.3.8-.7 1-1.4 1 0 .2-.1.2-.2 0zm10.2 0h-5.9v-4.8h.7v4.3h2V34h.7v4.3h2V34h.7v4.3h.5V40h-.5l-.2-1zm1.6-4.8H97v.6h-2V36h1.8v.5H95v1.8h2v.6h-2.7v-5zm3.9 0h2.7v.5h-2V39h-.7v-5zm3 2.4c0-1.3.9-2.5 2.4-2.5 1.6 0 2.5 1.1 2.5 2.5s-1 2.6-2.5 2.6c-1.5-.1-2.4-1.2-2.4-2.6zm4.2 0c0-1-.6-2-1.8-2-1.1 0-1.7 1-1.7 2s.6 2 1.7 2c1.2 0 1.8-1 1.8-2zm3.4-2.4h1.3c1 0 1.7.3 1.7 1.2 0 .6-.3 1-1 1 .7.1 1.1.5 1.1 1.3 0 1-.8 1.3-1.9 1.3h-1.3l.1-4.8zm1.2 2c.8 0 1-.2 1-.8 0-.5-.2-.7-1-.7h-.6V36h.6zm.1 2.4c.9 0 1.2-.2 1.2-.8 0-.7-.3-1-1.2-1h-.7v1.8h.7zm4.6-4.4h.7v2h2.7v-2h.7V39h-.7v-2.3h-2.7V39h-.7v-5zm6.8 0h.6L124 39h-.7l-.5-1.2h-2.1l-.4 1h-.8l2-4.7zm1.1 3.1l-.6-1.6c0-.4-.2-.6-.3-.8l-.3.8-.6 1.6h1.8zm1.8-.7c0-1.3 1-2.5 2.5-2.5.6 0 1 0 1.4.4l-.3.5c-.3-.2-.6-.3-1-.3-1.2 0-1.8 1-1.8 2s.6 1.9 1.8 1.9c.5 0 .9-.2 1.1-.4l.3.5c-.2.2-.8.5-1.5.5a2.5 2.5 0 0 1-2.5-2.6zm5.8-2h-1.5V34h3.5v.6h-1.4v4.3h-.7v-4.3zm2.4 2c0-1.3 1-2.5 2.5-2.5 1.6 0 2.5 1.1 2.5 2.5s-1 2.6-2.5 2.6-2.5-1.2-2.5-2.6zm4.2 0c0-1-.6-2-1.8-2-1.1 0-1.7 1-1.7 2s.6 2 1.7 2c1.2 0 1.8-1 1.8-2zm1.3 1.9c.4 0 .6-.4 1-1l.7-.8c-.8 0-1.4-.5-1.4-1.2 0-.8.6-1.3 1.7-1.3h1.4V39h-.7v-2.3h-.2c-.3 0-.5.4-1 1-.6 1-.8 1.2-1.2 1.2h-.2v-.5zm2.7-2.2v-1.6h-.7c-.7 0-1 .2-1 .8 0 .6.3.8 1 .8h.7zm8 2.8h-6v-5h.8v4.4h2V34h.7v4.3h2V34h.7v4.3h.5l-.1 1.6h-.4l-.3-1zm1.6-5h2.6v.7h-2V36h1.8v.5H151v1.8h2v.6h-2.7v-5zm4.1 0h.6l1.2 3.3c0 .5.2.7.3 1l.3-1 1.1-3.2h.7l.7 4.9h-.7l-.5-3v-.8l-.3.7-1.1 3h-.6l-1.2-3-.2-.7v.7l-.5 3h-.5l.7-4.8z"/></svg>
