<?xml version="1.0" standalone="no"?>
<!DOCTYPE svg PUBLIC "-//W3C//DTD SVG 20010904//EN"
 "http://www.w3.org/TR/2001/REC-SVG-20010904/DTD/svg10.dtd">
<svg version="1.0" xmlns="http://www.w3.org/2000/svg"
 width="512.000000pt" height="512.000000pt" viewBox="0 0 512.000000 512.000000"
 preserveAspectRatio="xMidYMid meet">

<g transform="translate(0.000000,512.000000) scale(0.100000,-0.100000)"
fill="#345a80" stroke="none">
<path d="M78 4469 c-23 -12 -46 -35 -58 -59 -20 -39 -20 -56 -20 -1757 0
-1616 1 -1720 18 -1753 9 -19 32 -45 51 -57 l34 -23 1572 0 c1484 0 1573 1
1588 18 29 32 31 67 4 98 l-25 29 -1546 3 -1546 2 0 1685 0 1685 2410 0 2410
0 0 -1684 0 -1685 -220 -3 c-211 -3 -220 -4 -241 -25 -30 -30 -30 -80 0 -105
21 -16 45 -18 266 -18 235 0 243 1 276 23 19 12 42 38 51 57 17 33 18 137 18
1753 0 1702 0 1718 -20 1757 -13 26 -34 47 -60 60 -39 20 -53 20 -2482 20
-2413 -1 -2443 -1 -2480 -21z"/>
<path d="M390 4200 c-54 -13 -97 -67 -105 -131 -3 -30 -5 -686 -3 -1459 3
-1384 3 -1405 23 -1438 11 -19 37 -42 57 -53 36 -18 80 -19 1456 -19 1372 0
1421 1 1443 19 32 26 32 86 0 112 -22 18 -70 19 -1427 19 l-1404 0 2 1403 3
1402 2125 0 2125 0 3 -1402 2 -1403 -77 0 c-48 -1 -85 -6 -95 -14 -43 -32 -38
-103 8 -125 14 -6 63 -11 110 -11 100 0 148 19 179 72 20 33 20 51 20 1485 0
1450 0 1452 -21 1479 -11 15 -33 37 -48 48 l-27 21 -2157 2 c-1186 0 -2173 -3
-2192 -7z"/>
<path d="M2573 3855 c-26 -11 -42 -32 -82 -113 l-50 -100 -83 -11 c-128 -18
-136 -20 -163 -53 -47 -56 -30 -103 71 -198 l67 -63 -17 -107 c-18 -117 -14
-148 26 -173 52 -33 65 -31 170 23 l101 52 102 -52 c97 -50 104 -52 138 -41
69 23 80 70 52 218 l-15 78 79 77 c43 42 81 89 85 102 9 36 -17 92 -51 109
-15 8 -71 20 -124 27 l-96 12 -47 100 c-40 85 -52 101 -81 114 -41 17 -42 17
-82 -1z m124 -344 c10 -5 41 -12 68 -16 82 -11 82 -11 26 -70 -55 -58 -61 -83
-41 -170 5 -22 7 -41 5 -43 -1 -2 -29 10 -60 27 -72 38 -91 39 -165 1 -33 -17
-60 -26 -60 -21 0 6 5 33 11 61 15 68 7 93 -48 151 -49 53 -49 53 29 64 61 8
95 36 125 104 l25 56 34 -67 c19 -37 42 -71 51 -77z"/>
<path d="M850 2780 c-27 -27 -26 -81 1 -106 19 -17 39 -19 239 -19 200 0 220
2 239 19 27 25 28 79 1 106 -19 19 -33 20 -240 20 -207 0 -221 -1 -240 -20z"/>
<path d="M1579 2782 c-30 -25 -30 -75 0 -105 l22 -22 1315 0 1316 0 19 24 c26
32 24 73 -4 99 l-23 22 -1311 0 c-1259 0 -1312 -1 -1334 -18z"/>
<path d="M885 2373 c-55 -14 -75 -83 -35 -123 20 -20 33 -20 1158 -20 1106 0
1139 1 1156 19 25 27 24 78 -3 104 l-22 22 -1117 1 c-614 1 -1126 0 -1137 -3z"/>
<path d="M3837 2365 c-46 -12 -61 -21 -104 -63 -22 -22 -30 -23 -83 -17 -116
13 -207 -57 -226 -175 -6 -34 -13 -46 -37 -59 -50 -27 -99 -74 -113 -108 -20
-47 -17 -117 7 -173 l21 -48 -21 -47 c-43 -98 -16 -203 67 -256 25 -15 49 -30
53 -31 5 -2 16 -30 24 -63 9 -32 27 -74 40 -91 25 -33 25 -33 25 -273 0 -259
4 -282 51 -307 56 -28 80 -19 199 74 61 48 120 93 130 100 16 11 29 4 119 -68
159 -127 181 -136 241 -105 52 27 55 40 58 308 3 243 4 249 28 284 13 19 26
51 30 72 9 57 10 58 68 95 95 61 122 156 76 264 l-22 50 22 41 c26 52 29 135
5 181 -18 35 -73 90 -90 90 -25 1 -48 33 -56 77 -21 112 -115 181 -227 168
-53 -6 -59 -5 -82 20 -52 56 -129 79 -203 60z m120 -185 c44 -39 95 -54 159
-46 64 7 80 -5 90 -69 8 -57 52 -119 104 -145 56 -29 63 -47 38 -101 -27 -57
-28 -131 -2 -189 11 -25 18 -52 16 -61 -1 -9 -24 -28 -50 -42 -55 -31 -88 -76
-107 -145 -19 -74 -20 -75 -82 -68 -73 9 -123 -7 -178 -54 -26 -22 -52 -40
-59 -40 -7 0 -31 16 -54 35 -61 53 -104 68 -172 60 -69 -8 -84 3 -94 69 -9 58
-41 104 -95 135 -59 35 -69 52 -52 93 31 75 35 122 17 174 -33 91 -32 102 5
121 58 31 106 85 119 133 24 92 28 95 101 92 76 -4 115 9 177 61 49 41 57 40
119 -13z m-211 -1049 c87 -77 191 -76 278 0 44 39 60 45 90 33 14 -5 16 -29
16 -165 l0 -158 -102 79 c-143 111 -148 111 -328 -33 l-60 -48 0 160 c0 144 2
160 18 164 35 10 45 6 88 -32z"/>
<path d="M3771 2000 c-73 -33 -118 -76 -152 -146 -75 -152 -18 -321 136 -402
69 -36 187 -38 256 -4 109 53 173 157 173 277 0 120 -56 210 -166 265 -51 25
-73 30 -132 30 -49 0 -85 -7 -115 -20z m200 -153 c44 -29 74 -100 65 -151 -9
-48 -59 -103 -106 -117 -138 -41 -249 114 -166 232 43 62 143 79 207 36z"/>
<path d="M857 1929 c-35 -27 -37 -79 -5 -109 22 -20 29 -20 1105 -20 l1084 0
24 25 c30 29 32 64 6 96 l-19 24 -1085 3 -1084 2 -26 -21z"/>
</g>
</svg>
