<?xml version="1.0" standalone="no"?>
<!DOCTYPE svg PUBLIC "-//W3C//DTD SVG 20010904//EN"
 "http://www.w3.org/TR/2001/REC-SVG-20010904/DTD/svg10.dtd">
<svg version="1.0" xmlns="http://www.w3.org/2000/svg"
 width="512.000000pt" height="512.000000pt" viewBox="0 0 512.000000 512.000000"
 preserveAspectRatio="xMidYMid meet">

<g transform="translate(0.000000,512.000000) scale(0.100000,-0.100000)"
fill="#345a80" stroke="none">
<path d="M2216 5110 c-144 -37 -272 -168 -306 -312 -5 -25 -10 -242 -10 -520
l0 -478 -54 0 c-109 0 -155 -16 -438 -157 l-277 -137 -39 42 c-77 83 -63 82
-609 82 l-483 0 0 -660 0 -661 487 3 c482 3 489 3 529 25 23 12 60 43 82 69
l40 46 185 -61 c232 -78 322 -91 452 -69 50 9 98 19 108 23 16 7 17 -4 17
-149 l0 -156 95 -190 c52 -104 95 -192 95 -195 0 -3 -209 -5 -465 -5 l-465 0
0 -80 0 -80 603 0 c672 0 650 -2 711 71 16 18 80 136 142 262 l114 228 0 383
0 383 69 -5 c156 -11 282 79 326 233 21 72 15 136 -20 213 -21 45 -62 93 -200
232 l-174 175 -3 560 c-3 557 -4 560 -26 617 -49 122 -132 207 -242 249 -63
24 -185 33 -244 19z m192 -176 c52 -21 100 -70 128 -129 22 -46 24 -63 24
-197 l0 -148 -251 0 -251 0 4 153 c4 167 17 214 76 270 67 64 185 87 270 51z
m-178 -1157 l0 -514 -42 -19 c-22 -10 -58 -31 -79 -46 -22 -16 -41 -28 -44
-28 -3 0 -5 252 -5 560 l0 560 85 0 85 0 0 -513z m330 7 c0 -398 -3 -504 -12
-498 -7 5 -44 11 -83 14 l-70 5 -3 493 -2 492 85 0 85 0 0 -506z m-660 -462
l0 -308 -37 -19 c-32 -16 -67 -20 -205 -23 l-168 -4 0 -80 0 -80 188 4 c187 3
187 3 254 35 49 23 95 58 164 123 110 105 183 146 294 163 60 9 75 8 105 -6
67 -32 84 -126 32 -175 -12 -11 -47 -30 -77 -41 -90 -34 -146 -72 -314 -211
-171 -141 -238 -181 -343 -206 -122 -29 -217 -16 -438 59 l-190 64 -3 359 -2
359 287 142 c159 78 295 144 303 147 8 2 45 5 83 5 l67 1 0 -308z m-957 136
c47 -25 46 -19 47 -486 l0 -443 -25 -24 -24 -25 -386 0 -385 0 0 495 0 495
376 0 c266 0 382 -3 397 -12z m2014 -272 c20 -37 13 -114 -13 -149 -29 -41
-97 -71 -141 -62 -76 14 -73 5 -73 240 l0 210 106 -105 c58 -58 112 -118 121
-134z m-397 -721 l0 -315 -85 0 -85 0 0 269 0 270 30 21 c22 16 121 66 138 69
1 1 2 -141 2 -314z m-330 -110 l0 -205 -85 0 -85 0 0 138 0 137 83 67 c45 37
83 67 85 68 1 0 2 -92 2 -205z m200 -534 c-83 -164 -99 -183 -142 -160 -15 8
-168 294 -168 314 0 3 88 5 195 5 l196 0 -81 -159z"/>
<path d="M3737 5113 c-2 -5 -14 -39 -27 -76 -29 -90 -43 -95 -134 -50 l-69 35
-217 -217 -218 -218 35 -73 c27 -56 32 -77 25 -91 -6 -10 -43 -30 -84 -44
l-73 -27 -3 -305 -2 -305 75 -27 c42 -16 80 -36 85 -46 7 -12 1 -37 -24 -92
l-34 -74 216 -216 217 -216 73 34 c54 26 79 32 91 25 10 -5 30 -43 46 -85 l27
-75 305 2 306 3 26 74 c15 40 35 78 45 83 13 7 36 1 90 -25 l73 -35 218 218
217 217 -35 69 c-46 92 -41 104 55 136 l73 25 0 309 0 309 -72 25 c-96 33
-100 44 -54 138 l36 72 -218 217 -217 218 -72 -36 c-93 -46 -105 -42 -139 54
l-25 72 -306 3 c-169 1 -309 -1 -311 -5z m519 -218 c12 -38 24 -57 38 -61 12
-3 51 -19 87 -36 l66 -30 53 27 53 27 134 -135 135 -134 -27 -53 -27 -53 30
-66 c17 -36 33 -75 36 -87 4 -14 23 -26 61 -38 l55 -17 0 -193 0 -192 -52 -17
-53 -16 -37 -87 -36 -86 25 -56 24 -56 -134 -134 -134 -134 -52 26 -52 27 -87
-35 -87 -35 -18 -56 -19 -55 -192 0 -192 0 -18 56 c-10 31 -25 58 -34 61 -9 3
-48 19 -85 36 l-68 31 -56 -28 -56 -27 -135 134 -134 134 27 52 26 53 -35 86
-34 87 -56 20 -56 20 0 190 0 191 56 20 55 20 35 86 34 86 -25 53 -25 54 134
134 134 134 55 -26 55 -25 86 36 87 37 16 53 17 52 192 0 193 0 17 -55z"/>
<path d="M3955 4700 c-251 -38 -462 -216 -538 -455 -18 -58 -22 -92 -22 -205
1 -154 16 -214 86 -332 75 -128 211 -238 359 -289 94 -33 303 -34 405 -2 357
113 551 511 420 860 -109 288 -411 468 -710 423z m214 -175 c218 -58 370 -253
371 -475 0 -240 -174 -449 -411 -491 -329 -59 -629 241 -570 570 50 282 338
469 610 396z"/>
<path d="M3977 4370 c-98 -25 -182 -92 -228 -182 -34 -65 -38 -185 -9 -261 30
-79 108 -157 187 -187 77 -29 196 -25 261 9 153 79 223 250 168 411 -26 74
-120 169 -191 193 -64 22 -140 29 -188 17z m160 -186 c46 -35 66 -70 70 -126
12 -153 -165 -234 -275 -127 -79 77 -60 208 38 261 45 25 129 20 167 -8z"/>
<path d="M3967 2803 c-4 -3 -7 -34 -7 -68 0 -143 -51 -339 -130 -495 -150
-297 -401 -526 -785 -715 -455 -225 -1007 -347 -1642 -362 l-243 -6 0 -83 0
-84 108 0 c363 0 833 57 1164 141 570 143 981 358 1283 670 254 263 385 553
411 912 l7 97 -80 0 c-44 0 -83 -3 -86 -7z"/>
<path d="M4460 1075 l0 -905 -85 0 -85 0 0 660 0 660 -327 -2 -328 -3 -3 -657
-2 -658 -80 0 -80 0 0 495 0 495 -330 0 -330 0 0 -495 0 -495 -85 0 -85 0 0
410 0 410 -330 0 -330 0 0 -410 0 -410 -80 0 -80 0 -2 328 -3 327 -327 3 -328
2 0 -415 0 -415 1980 0 1980 0 0 990 0 990 -330 0 -330 0 0 -905z m490 -80 l0
-825 -165 0 -165 0 0 818 c0 450 3 822 7 825 3 4 78 7 165 7 l158 0 0 -825z
m-820 -250 l0 -575 -165 0 -165 0 0 575 0 575 165 0 165 0 0 -575z m-830 -165
l0 -410 -165 0 -165 0 0 410 0 410 165 0 165 0 0 -410z m-822 -83 l2 -327
-165 0 -165 0 0 330 0 330 163 -2 162 -3 3 -328z m-828 -82 l0 -245 -165 0
-165 0 0 245 0 245 165 0 165 0 0 -245z"/>
</g>
</svg>
