<?xml version="1.0" standalone="no"?>
<!DOCTYPE svg PUBLIC "-//W3C//DTD SVG 20010904//EN"
 "http://www.w3.org/TR/2001/REC-SVG-20010904/DTD/svg10.dtd">
<svg version="1.0" xmlns="http://www.w3.org/2000/svg"
 width="512.000000pt" height="512.000000pt" viewBox="0 0 512.000000 512.000000"
 preserveAspectRatio="xMidYMid meet">

<g transform="translate(0.000000,512.000000) scale(0.100000,-0.100000)"
fill="#345a80" stroke="none">
<path d="M2394 5106 c-339 -65 -603 -266 -745 -570 -66 -142 -81 -216 -86
-428 l-5 -187 -62 50 c-118 96 -234 139 -381 139 -169 0 -296 -52 -416 -170
-61 -60 -85 -92 -117 -160 -22 -47 -45 -112 -51 -144 -6 -33 -11 -162 -11
-286 0 -194 3 -238 20 -305 35 -136 113 -250 226 -331 l64 -46 0 -72 0 -73
-223 -67 c-282 -85 -331 -108 -428 -205 -125 -124 -169 -231 -176 -428 -6
-131 -5 -131 20 -157 33 -33 71 -33 102 -1 23 22 25 31 25 122 0 160 34 255
127 354 62 67 132 99 362 169 202 61 220 63 221 27 0 -20 91 -103 135 -123 60
-29 149 -32 219 -8 53 18 142 100 152 139 3 14 9 25 12 25 26 0 435 -131 429
-137 -3 -2 -92 -26 -197 -53 -106 -27 -220 -62 -254 -78 -167 -79 -293 -223
-353 -407 -24 -74 -27 -97 -31 -287 l-4 -208 -164 0 -164 0 0 136 c0 76 -5
144 -11 155 -25 48 -105 44 -128 -7 -6 -14 -11 -80 -11 -154 l0 -130 -170 0
-170 0 0 95 c0 88 -2 98 -25 120 -31 32 -69 32 -100 0 -24 -23 -25 -29 -25
-168 0 -128 2 -148 19 -168 l19 -24 466 -3 466 -3 0 -218 c0 -214 0 -218 23
-239 23 -22 27 -22 408 -22 l385 0 24 -57 c138 -342 486 -550 842 -505 302 38
545 224 658 505 l24 57 386 0 387 0 21 23 c21 22 22 31 22 240 l0 216 466 3
466 3 19 24 c17 20 19 40 19 168 0 139 -1 145 -25 168 -31 32 -69 32 -100 0
-23 -22 -25 -32 -25 -120 l0 -95 -170 0 -170 0 0 130 c0 74 -5 140 -11 154
-23 51 -103 55 -128 7 -6 -11 -11 -79 -11 -155 l0 -136 -164 0 -164 0 -4 208
c-4 190 -7 213 -31 287 -43 131 -108 227 -215 318 -89 75 -175 112 -390 166
-107 27 -196 52 -199 54 -6 6 403 137 429 137 3 0 9 -11 12 -25 10 -39 99
-121 152 -139 70 -24 159 -21 219 8 44 20 135 103 135 123 1 36 19 34 221 -27
230 -69 299 -102 362 -169 93 -99 127 -194 127 -354 0 -91 2 -100 25 -122 31
-32 69 -32 100 0 23 22 25 31 25 128 0 182 -50 322 -157 438 -106 114 -162
140 -545 255 l-128 38 0 73 0 73 43 26 c63 41 151 135 191 207 63 113 76 187
76 447 0 124 -5 253 -11 286 -6 32 -29 97 -51 144 -32 68 -56 100 -117 160
-119 117 -249 170 -417 170 -146 0 -262 -43 -380 -139 l-62 -50 -5 187 c-3
152 -8 202 -26 267 -97 348 -373 622 -717 711 -122 32 -312 41 -420 20z m296
-146 c299 -48 551 -250 664 -534 45 -112 56 -185 56 -378 l0 -177 -32 10 c-18
5 -73 9 -123 9 -81 0 -95 3 -141 30 -51 29 -98 76 -116 116 -8 18 0 36 47 108
53 79 57 89 49 118 -12 41 -55 65 -93 52 -16 -6 -56 -53 -112 -134 -110 -157
-161 -210 -245 -251 l-68 -34 -205 -5 c-214 -7 -244 -12 -310 -59 l-27 -20
-11 30 c-6 16 -23 33 -38 39 -33 13 -199 13 -244 0 l-33 -9 4 207 c5 229 14
273 84 417 159 328 533 522 894 465z m-1398 -1037 c111 -52 192 -140 239 -258
22 -57 23 -72 23 -300 1 -225 -1 -244 -22 -303 -43 -120 -113 -203 -219 -260
-220 -117 -492 -23 -602 207 l-36 76 -3 242 c-3 197 -1 253 13 304 37 145 139
255 286 310 43 15 74 19 154 16 88 -2 108 -6 167 -34z m2899 -1 c125 -60 212
-163 244 -290 14 -52 16 -108 13 -305 l-3 -242 -36 -76 c-87 -181 -278 -284
-469 -251 -171 29 -304 148 -357 317 -15 51 -18 94 -17 295 0 222 1 238 23
295 55 138 156 235 296 282 25 8 77 12 140 10 89 -3 107 -6 166 -35z m-1255
-52 c26 -28 71 -64 100 -81 l54 -30 0 -254 c0 -144 -5 -277 -11 -307 -29 -141
-139 -289 -265 -355 -266 -141 -602 -36 -727 228 -48 101 -57 155 -57 332 l1
152 47 70 c72 106 94 115 302 115 184 0 243 10 346 61 33 17 83 50 110 74 27
24 50 44 51 45 1 0 23 -23 49 -50z m-1056 -300 l0 -170 -51 0 c-52 0 -85 12
-106 39 -17 22 -17 242 0 263 21 27 50 37 105 38 l52 0 0 -170z m1483 158 c12
-6 27 -18 34 -27 17 -22 17 -240 0 -262 -21 -27 -54 -39 -106 -39 l-51 0 0
170 0 170 51 0 c28 0 60 -5 72 -12z m-1536 -478 l52 0 6 -37 c26 -152 91 -279
197 -386 l78 -78 0 -119 0 -118 -99 -91 -100 -92 -58 29 c-32 16 -150 57 -263
91 -113 34 -215 66 -227 71 -21 9 -23 17 -23 78 l0 68 60 42 c78 55 155 149
195 237 37 81 52 139 61 246 l6 77 32 -9 c17 -5 54 -9 83 -9z m1609 -199 c31
-130 111 -250 225 -333 l69 -50 0 -69 c0 -62 -2 -70 -22 -79 -13 -5 -115 -37
-228 -71 -113 -34 -231 -75 -263 -91 l-58 -29 -100 92 -99 91 0 118 0 119 78
78 c106 107 171 234 197 386 l6 37 57 1 c31 1 68 4 82 8 25 7 25 6 33 -68 4
-42 15 -105 23 -140z m-1016 -407 c70 -17 262 -15 310 3 14 6 37 13 53 17 l27
6 -2 -186 -3 -187 -115 -73 c-63 -40 -122 -73 -130 -73 -8 0 -67 33 -130 73
l-115 73 -3 188 -2 187 22 -6 c13 -4 52 -14 88 -22z m-1180 -127 c0 -129 -36
-177 -133 -177 -87 0 -127 57 -127 182 l0 83 130 0 130 0 0 -88z m2900 5 c0
-125 -40 -182 -127 -182 -97 0 -133 48 -133 177 l0 88 130 0 130 0 0 -83z
m-1969 -293 c7 -17 51 -51 134 -103 69 -43 125 -81 125 -85 0 -10 -249 -256
-254 -251 -15 17 -177 354 -174 365 2 7 37 43 78 81 71 65 75 67 78 44 2 -14
7 -36 13 -51z m883 -5 c36 -34 66 -66 66 -73 0 -10 -166 -349 -176 -361 -5 -5
-254 241 -254 251 0 4 56 42 124 84 124 78 146 101 146 151 0 31 7 27 94 -52z
m-1100 -326 c51 -106 104 -203 117 -215 53 -48 122 -55 186 -19 l41 24 21 -51
c12 -27 20 -51 19 -53 -2 -1 -34 -14 -72 -28 -300 -113 -503 -406 -509 -733
l-2 -103 -82 0 -83 0 0 137 0 137 -52 53 c-60 61 -101 70 -138 31 -29 -31 -25
-71 10 -111 29 -34 30 -37 30 -141 l0 -106 -160 0 -160 0 0 413 c0 454 3 485
61 599 41 81 134 177 212 219 41 23 128 51 262 86 110 28 201 52 203 52 2 1
45 -86 96 -191z m1759 60 c84 -42 177 -134 221 -217 63 -120 66 -148 66 -608
l0 -413 -160 0 -160 0 0 106 c0 104 1 107 30 141 35 40 39 80 10 111 -36 39
-77 30 -137 -30 l-53 -52 0 -138 0 -138 -82 0 -83 0 -2 103 c-3 156 -50 312
-132 431 -35 51 -68 63 -111 41 -42 -22 -49 -59 -20 -110 91 -162 113 -238
113 -385 0 -85 -5 -120 -26 -185 -126 -389 -553 -574 -912 -396 -233 116 -369
333 -368 586 0 113 19 198 64 289 66 133 166 234 294 297 106 52 180 69 295
69 102 0 174 -15 270 -55 66 -28 96 -24 124 17 36 51 5 95 -97 134 -39 15 -73
29 -75 29 -1 1 7 25 19 52 l21 51 41 -24 c64 -36 133 -29 186 19 13 12 66 108
117 214 l92 191 197 -49 c117 -30 222 -62 258 -81z m-1075 -81 l72 -73 -42
-97 -41 -97 -67 0 -67 0 -41 97 -42 97 72 73 c40 40 75 73 78 73 3 0 38 -33
78 -73z"/>
<path d="M2494 1291 c-28 -12 -63 -55 -109 -135 -22 -36 -46 -66 -55 -66 -8 0
-51 -9 -95 -20 -110 -28 -155 -75 -155 -160 0 -52 9 -70 80 -150 l58 -66 -9
-88 c-11 -105 -1 -151 38 -188 61 -58 108 -61 226 -12 l87 37 88 -37 c117 -49
164 -46 225 12 40 38 49 85 38 187 l-10 87 58 67 c72 81 81 99 81 151 0 85
-45 132 -155 160 -44 11 -87 20 -95 20 -8 0 -36 35 -62 78 -65 108 -85 125
-156 129 -31 1 -66 -1 -78 -6z m120 -222 c27 -45 61 -88 78 -99 16 -10 68 -26
114 -35 46 -10 84 -21 84 -24 0 -3 -27 -36 -59 -73 -76 -86 -84 -110 -72 -223
5 -50 8 -91 7 -92 -2 -2 -39 13 -83 32 -103 44 -139 44 -244 0 -45 -20 -83
-34 -84 -33 -2 2 1 43 6 93 12 113 4 137 -72 223 -32 37 -59 69 -59 72 0 3 38
14 84 24 47 10 98 27 114 36 17 11 51 54 78 99 27 45 51 81 54 81 3 0 27 -36
54 -81z"/>
</g>
</svg>
