<?xml version="1.0" encoding="utf-8"?>
<!-- Generator: Adobe Illustrator 24.0.1, SVG Export Plug-In . SVG Version: 6.00 Build 0)  -->
<svg version="1.1" id="Layer_1" xmlns="http://www.w3.org/2000/svg" xmlns:xlink="http://www.w3.org/1999/xlink" x="0px" y="0px"
	 viewBox="0 0 167 49" style="enable-background:new 0 0 167 49;" xml:space="preserve">
<style type="text/css">
	.st0{fill:#009639;}
</style>
<g>
	<path class="st0" d="M78.7,6.9c-1.1-1.6-2.6-2.9-4.6-3.8c-2-0.9-4.3-1.3-6.9-1.3H56.5v30.6h6.1v-8.7h4.6c2.6,0,5-0.4,6.9-1.3
		c2-0.9,3.5-2.2,4.6-3.8c1.1-1.7,1.6-3.6,1.6-5.8C80.3,10.5,79.8,8.6,78.7,6.9 M74.2,12.8c0,1.8-0.6,3.3-1.8,4.3
		c-1.2,1-3,1.5-5.4,1.5h-4.4V7H67c2.4,0,4.2,0.5,5.4,1.5C73.6,9.5,74.2,10.9,74.2,12.8"/>
	<polygon class="st0" points="89.2,27.3 89.2,19.4 101.8,19.4 101.8,14.4 89.2,14.4 89.2,7 103.7,7 103.7,1.8 83.1,1.8 83.1,32.5 
		104.3,32.5 104.3,27.3 	"/>
	<path class="st0" d="M127.8,25.7c-1.7,1.2-3.7,1.8-6,1.8c-2,0-3.9-0.4-5.4-1.3c-1.6-0.9-2.9-2.1-3.7-3.7c-0.9-1.6-1.3-3.4-1.3-5.4
		c0-2,0.5-3.8,1.3-5.4c0.9-1.6,2.2-2.8,3.7-3.7c1.6-0.9,3.4-1.3,5.4-1.3c2.1,0,4,0.5,5.6,1.6l3.6-4.2c-0.8-0.5-1.7-1-2.6-1.4
		c-2.1-0.9-4.4-1.3-6.9-1.3c-3.1,0-5.9,0.7-8.4,2c-2.5,1.4-4.5,3.2-5.9,5.6c-1.4,2.4-2.1,5.1-2.1,8.1c0,3,0.7,5.7,2.1,8.1
		c1.4,2.4,3.4,4.3,5.9,5.6c2.5,1.3,5.3,2,8.4,2c2.5,0,4.8-0.4,6.9-1.3c1-0.4,1.9-0.9,2.8-1.5L127.8,25.7z"/>
	<path class="st0" d="M161.7,9c-1.4-2.4-3.4-4.3-5.9-5.6c-2.5-1.3-5.3-2-8.4-2c-3.1,0-5.9,0.7-8.4,2c-2.5,1.4-4.5,3.3-5.9,5.6
		c-1.4,2.4-2.1,5.1-2.1,8.1c0,3,0.7,5.7,2.1,8.1c1.4,2.4,3.4,4.3,5.9,5.6c2.5,1.3,5.3,2,8.4,2c3.1,0,5.9-0.7,8.4-2
		c2.5-1.4,4.5-3.2,5.9-5.6c1.4-2.4,2.1-5.1,2.1-8.1C163.8,14.1,163.1,11.4,161.7,9 M157.7,17.1c0,2-0.5,3.8-1.3,5.3
		c-0.9,1.6-2.1,2.8-3.7,3.7c-1.6,0.9-3.4,1.3-5.3,1.3c-2,0-3.7-0.4-5.3-1.3c-1.6-0.9-2.8-2.1-3.7-3.7c-0.9-1.6-1.3-3.4-1.3-5.3
		c0-2,0.5-3.8,1.3-5.3c0.9-1.6,2.1-2.8,3.7-3.7c1.6-0.9,3.4-1.3,5.3-1.3c2,0,3.8,0.4,5.3,1.3c1.6,0.9,2.8,2.1,3.7,3.7
		C157.2,13.4,157.7,15.2,157.7,17.1"/>
	<polygon class="st0" points="61.6,42 58.5,42 58.5,47.4 56.5,47.4 56.5,40.5 61.7,40.5 	"/>
	<path class="st0" d="M73.8,46.1h-3l-0.6,1.4h-2l3.1-7h1.9l3.1,7h-2.1L73.8,46.1z M73.2,44.6l-0.9-2.2l-0.9,2.2H73.2z"/>
	<path class="st0" d="M88.5,40.8c0.5,0.2,0.8,0.5,1.1,0.9c0.3,0.4,0.4,0.8,0.4,1.4c0,0.5-0.1,1-0.4,1.4c-0.3,0.4-0.6,0.7-1.1,0.9
		c-0.5,0.2-1,0.3-1.6,0.3h-1.2v1.8h-2v-7h3.2C87.5,40.5,88,40.6,88.5,40.8 M87.7,43.8c0.2-0.2,0.3-0.4,0.3-0.8
		c0-0.3-0.1-0.6-0.3-0.8c-0.2-0.2-0.5-0.3-0.9-0.3h-1.1v2h1.1C87.2,44.1,87.5,44,87.7,43.8"/>
	<path class="st0" d="M102.5,46.1h-3L99,47.4h-2l3.1-7h1.9l3.1,7H103L102.5,46.1z M101.9,44.6l-0.9-2.2l-0.9,2.2H101.9z"/>
	<polygon class="st0" points="119.8,40.5 119.8,47.4 117.8,47.4 117.8,44.7 115.1,44.7 115.1,47.4 113.2,47.4 113.2,40.5 
		115.1,40.5 115.1,43.1 117.8,43.1 117.8,40.5 	"/>
	<polygon class="st0" points="134.1,42 132,42 132,47.4 130,47.4 130,42 127.9,42 127.9,40.5 134.1,40.5 	"/>
	<polygon class="st0" points="141.8,40.5 143.8,40.5 143.8,44.6 146.7,40.5 148.5,40.5 148.5,47.4 146.6,47.4 146.6,43.4 
		143.7,47.4 141.8,47.4 	"/>
	<path class="st0" d="M161.5,40.5v7h-1.9v-1.8h-1.1l-1.1,1.8h-2.1l1.4-2c-0.5-0.2-0.8-0.5-1.1-0.9c-0.2-0.4-0.4-0.9-0.4-1.4
		c0-0.5,0.1-1,0.4-1.4c0.3-0.4,0.6-0.7,1.1-0.9c0.5-0.2,1-0.3,1.7-0.3H161.5z M157.3,43.1c0,0.4,0.1,0.6,0.3,0.8
		c0.2,0.2,0.5,0.3,0.9,0.3h1.2V42h-1.2C157.6,42,157.3,42.4,157.3,43.1"/>
	<path class="st0" d="M47.4,32.6l-0.3-2.8c-0.6-5.3-2.3-9.7-5-13c-2.4-3.1-5.6-5.3-9.5-6.9V1.8l-2.8,0.3c-5.3,0.6-9.7,2.3-13,5
		c-3.1,2.4-5.3,5.6-6.9,9.5H1.8l0.3,2.8c0.6,5.3,2.3,9.7,5,13.1c2.4,3.1,5.6,5.3,9.5,6.9v8.1l2.8-0.3c5.3-0.6,9.7-2.3,13-5
		c3.1-2.4,5.3-5.6,6.9-9.5H47.4z M29.3,38.1c-2.1,1.6-4.6,2.8-7.7,3.5V25h-5v8.9c-2.2-1.1-4.1-2.6-5.5-4.5c-1.6-2.1-2.8-4.6-3.5-7.7
		h16.7v-5h-8.9c1.1-2.2,2.6-4.1,4.5-5.5c2.1-1.6,4.6-2.8,7.7-3.5v16.9h5v-9.1c2.2,1.1,4.1,2.6,5.5,4.5c1.6,2.1,2.8,4.6,3.5,7.7H25.1
		v5h8.7C32.7,34.8,31.2,36.7,29.3,38.1"/>
</g>
</svg>
