<svg width="270" height="28" viewBox="0 0 270 28" fill="none" xmlns="http://www.w3.org/2000/svg">
<path d="M74.2822 8.28989L77.5611 5.85364H66.5854V20.4878H77.5611V18.0515H69.7176V14.3041H76.4088V11.8678H69.7176V8.28989H74.2822Z" fill="white"/>
<path d="M57.2313 18.0465H53.7892V13.99H57.2313C59.3268 13.99 60.3033 14.668 60.3033 16.0174C60.3033 17.3968 59.2694 18.0465 57.2313 18.0465ZM57.8064 11.5537H53.7892V8.28989H60.2025L63.6585 5.85364H50.4878V20.4878H57.3807C61.2468 20.4878 63.4622 18.8127 63.4622 15.8911C63.4622 13.0976 61.4536 11.5587 57.8047 11.5587" fill="white"/>
<path d="M86.8892 13.9025H83.8805V8.29405H86.8892C89.0623 8.29405 90.2605 9.29081 90.2605 11.1016C90.2605 12.9124 89.0623 13.9075 86.8892 13.9075V13.9025ZM86.9607 5.85862H80.4878V20.4878H83.8805V16.3396H86.9607C91.0926 16.3396 93.6585 14.3178 93.6585 11.09C93.6585 7.86211 91.0926 5.85364 86.9607 5.85364" fill="white"/>
<path d="M44.7156 17.7808C43.8482 18.2452 42.876 18.4857 41.8893 18.4801C38.9371 18.4801 36.7933 16.401 36.7933 13.534C36.7933 10.6671 38.9371 8.58788 41.8893 8.58788C42.9558 8.57255 43.9993 8.8945 44.8673 9.50666L47.2162 7.80521L47.0611 7.67079C45.6824 6.47977 43.8574 5.85364 41.7617 5.85364C39.4903 5.85364 37.4275 6.60909 35.9557 7.98386C34.4839 9.35864 33.6584 11.3034 33.6584 13.4506C33.6584 15.5979 34.4702 17.5835 35.9471 19.0076C37.424 20.4317 39.4852 21.2195 41.7411 21.2195C44.1021 21.2195 46.1632 20.4062 47.5609 18.9276L45.4411 17.3895L44.7156 17.7808Z" fill="white"/>
<path d="M114.146 19.3429C113.914 19.606 113.641 19.8339 113.338 20.0188C112.951 20.2585 112.538 20.4579 112.107 20.6137C111.594 20.8031 111.064 20.949 110.525 21.0497C109.909 21.1664 109.282 21.2231 108.654 21.2187C107.481 21.2333 106.313 21.0538 105.203 20.688C104.221 20.3627 103.32 19.8448 102.557 19.1671C101.815 18.4893 101.234 17.6656 100.853 16.7523C100.433 15.7234 100.226 14.625 100.245 13.5196C100.232 12.4633 100.435 11.4149 100.843 10.4338C101.224 9.51738 101.804 8.68913 102.543 8.00379C103.31 7.30656 104.218 6.76769 105.21 6.42038C106.327 6.03085 107.508 5.8396 108.696 5.85595C109.762 5.83304 110.824 5.98037 111.84 6.29194C112.543 6.50601 113.213 6.8101 113.832 7.19603V10.8969C113.574 10.5498 113.279 10.2292 112.953 9.94039C112.596 9.62115 112.203 9.34272 111.78 9.11067C111.326 8.86155 110.844 8.66527 110.342 8.52597C109.806 8.37559 109.251 8.30045 108.693 8.3029C107.913 8.29108 107.137 8.42064 106.407 8.68481C105.761 8.91977 105.172 9.28245 104.681 9.74944C104.199 10.2165 103.829 10.7787 103.596 11.3971C103.338 12.0821 103.21 12.8063 103.22 13.5348C103.217 14.2249 103.336 14.9105 103.571 15.5626C103.787 16.1852 104.142 16.7552 104.61 17.2329C105.078 17.7107 105.649 18.0847 106.282 18.329C107.029 18.6173 107.825 18.7653 108.629 18.765C109.259 18.7703 109.886 18.6988 110.497 18.552C111.035 18.4214 111.555 18.2285 112.045 17.9775C112.494 17.7512 112.908 17.4669 113.276 17.1325C113.618 16.8222 113.909 16.4638 114.139 16.0696L114.146 19.3429Z" fill="white"/>
<path d="M128.049 8.25695H122.806V20.4878H120.03V8.25695H114.878V5.85364H128.049V8.25695Z" fill="white"/>
<path d="M132.347 15.9303V20.4878H129.512V5.85364H134.8C137.313 5.85364 139.133 6.26831 140.261 7.09765C141.389 7.92699 141.952 9.1638 141.951 10.8081C141.951 12.5221 141.346 13.8043 140.135 14.6547C138.924 15.5051 137.146 15.9303 134.8 15.9303H132.347ZM132.347 8.25695V13.5253H135.004C136.335 13.5253 137.334 13.3127 138 12.8875C138.666 12.4623 138.999 11.7482 138.999 10.745C138.999 9.84034 138.689 9.19924 138.068 8.82166C137.448 8.44408 136.441 8.25585 135.049 8.25695H132.347Z" fill="white"/>
<path d="M158.049 20.4878H155.049L153.539 17.0165H146.305L144.816 20.4878H141.951L148.36 5.85364H151.561L158.049 20.4878ZM152.497 14.6132L149.906 8.61238L147.318 14.6132H152.497Z" fill="white"/>
<path d="M163.38 13.0453L158.327 5.85364H161.525L165.342 11.3927L169.4 5.85364H172.492L167.16 12.8992L172.683 20.4878H169.501L165.266 14.5916L161.171 20.4878H158.049L163.38 13.0453Z" fill="white"/>
<path d="M173.416 13.5181C173.404 12.4623 173.596 11.414 173.984 10.4304C174.348 9.51846 174.9 8.692 175.605 8.00388C176.33 7.30837 177.193 6.76895 178.138 6.41945C179.202 6.02923 180.33 5.83774 181.465 5.85467C182.585 5.84064 183.698 6.01973 184.756 6.38394C185.702 6.7097 186.569 7.22809 187.301 7.9058C188.015 8.58414 188.571 9.40876 188.931 10.3222C189.333 11.3533 189.53 12.4517 189.511 13.557C189.523 14.6122 189.33 15.66 188.943 16.643C188.58 17.5554 188.027 18.3821 187.321 19.0695C186.594 19.7671 185.728 20.3073 184.779 20.6556C183.717 21.0426 182.593 21.2335 181.462 21.2187C180.342 21.2316 179.227 21.0555 178.167 20.6979C177.22 20.3784 176.353 19.8631 175.622 19.1862C174.907 18.5053 174.35 17.677 173.992 16.7596C173.593 15.7256 173.397 14.6252 173.416 13.5181ZM176.248 13.5384C176.246 14.234 176.361 14.9251 176.589 15.5827C176.799 16.1999 177.139 16.7655 177.587 17.2416C178.05 17.7237 178.609 18.1045 179.229 18.3593C180.65 18.9027 182.222 18.9141 183.651 18.3914C184.263 18.152 184.818 17.7899 185.282 17.3278C185.743 16.8572 186.098 16.2946 186.324 15.6774C186.573 14.9918 186.697 14.2673 186.689 13.5384C186.691 12.8434 186.575 12.1529 186.347 11.4957C186.138 10.8778 185.797 10.3116 185.348 9.83518C184.885 9.35392 184.327 8.9733 183.708 8.71746C182.989 8.42809 182.218 8.28712 181.443 8.30318C180.702 8.29192 179.965 8.42165 179.274 8.68533C178.656 8.9206 178.097 9.28602 177.636 9.75635C177.174 10.2267 176.821 10.7907 176.601 11.4095C176.359 12.093 176.239 12.8137 176.248 13.5384Z" fill="white"/>
<path d="M192.439 20.4854V5.85364H198.779C202.059 5.85364 203.699 7.06589 203.699 9.49041C203.726 10.2225 203.545 10.9472 203.179 11.5811C202.831 12.1347 202.282 12.5592 201.531 12.8548C202.435 13.0098 203.098 13.3691 203.519 13.9326C203.939 14.4961 204.148 15.2589 204.145 16.2209C204.162 16.8908 204.026 17.5558 203.749 18.1655C203.492 18.6997 203.1 19.1576 202.612 19.494C202.068 19.8577 201.459 20.1131 200.818 20.2463C200.034 20.4156 199.233 20.4964 198.431 20.4871L192.439 20.4854ZM198.403 12.0395C199.238 12.0395 199.895 11.8657 200.374 11.518C200.606 11.3537 200.794 11.1337 200.919 10.8782C201.045 10.6226 201.105 10.3396 201.093 10.055C201.108 9.79853 201.06 9.54236 200.952 9.30898C200.845 9.07561 200.683 8.87218 200.479 8.71656C200.068 8.411 199.397 8.25767 198.466 8.25656H195.047V12.0395H198.403ZM198.592 18.0808C199.592 18.0808 200.329 17.9148 200.802 17.5826C201.274 17.2505 201.511 16.7318 201.511 16.0266C201.511 15.3159 201.261 14.8138 200.76 14.5204C200.26 14.2271 199.551 14.0809 198.633 14.082H195.047V18.0675L198.592 18.0808Z" fill="white"/>
<path d="M220.976 20.4878H218.25L216.876 17.0165H210.299L208.946 20.4878H206.341L212.16 5.85364H215.071L220.976 20.4878ZM215.929 14.6132L213.578 8.61238L211.221 14.6132H215.929Z" fill="white"/>
<path d="M234.471 14.1531H226.503V20.4878H223.902V5.85364H226.503V11.7482H234.471V5.85364H237.073V20.4878H234.471V14.1531Z" fill="white"/>
<path d="M244.018 16.7873L251.847 5.85364H254.634V20.4878H252.081V9.38636L244.21 20.4878H241.464V5.85364H244.026L244.018 16.7873Z" fill="white"/>
<path d="M268.997 14.1531H262.342V18.0828H270V20.4878H259.756V5.85364H269.771V8.25695H262.342V11.7448H269.005L268.997 14.1531Z" fill="white"/>
<path d="M23.5029 5.85364C24.0478 6.59799 24.5093 7.4066 24.8781 8.26328L13.8816 16.8292L9.51221 13.9324V10.4518L13.8816 13.347L23.5029 5.85364Z" fill="white"/>
<path d="M23.0018 3.76968C20.6681 1.4401 17.7112 0.235158 14.4174 0.0270498C11.1236 -0.181058 7.86678 0.817057 5.25741 2.83433C2.64805 4.8516 0.865235 7.74954 0.243122 10.985C-0.378992 14.2205 0.202299 17.5714 1.87804 20.4096C3.55379 23.2479 6.20896 25.3787 9.3459 26.4027C12.4828 27.4267 15.8862 27.2736 18.9182 25.972C21.9501 24.6705 24.4024 22.3098 25.8156 19.3326C27.2287 16.3553 27.4319 12.8477 26.5208 9.68122L23.431 11.9088C24.0995 14.232 23.5889 15.6047 22.5521 17.7891C21.5153 19.9735 19.716 21.7055 17.4915 22.6604C15.2669 23.6153 12.7699 23.7277 10.4683 22.9764C8.16679 22.2251 6.21871 20.6617 4.98922 18.5793C3.75973 16.4969 3.33325 14.0384 3.78969 11.6645C4.24613 9.29066 5.55417 7.16446 7.46864 5.6844C9.38312 4.20434 11.7726 3.47202 14.1893 3.62471C16.6059 3.7774 18.3714 4.20234 20.0837 5.91154L23.0018 3.76968Z" fill="white"/>
</svg>
