<?xml version="1.0" standalone="no"?>
<!DOCTYPE svg PUBLIC "-//W3C//DTD SVG 20010904//EN"
 "http://www.w3.org/TR/2001/REC-SVG-20010904/DTD/svg10.dtd">
<svg version="1.0" xmlns="http://www.w3.org/2000/svg"
 width="512.000000pt" height="512.000000pt" viewBox="0 0 512.000000 512.000000"
 preserveAspectRatio="xMidYMid meet">

<g transform="translate(0.000000,512.000000) scale(0.100000,-0.100000)"
fill="#345a80" stroke="none">
<path d="M2430 5115 c-8 -2 -36 -6 -61 -10 -26 -3 -54 -11 -63 -18 -9 -7 -36
-68 -59 -136 l-42 -123 -79 -31 -78 -31 -113 58 c-85 44 -119 57 -138 52 -73
-18 -335 -279 -353 -353 -5 -18 9 -54 52 -137 l58 -113 -31 -79 -31 -79 -108
-37 c-152 -52 -151 -51 -166 -100 -18 -62 -16 -390 3 -443 14 -40 15 -40 143
-85 l128 -45 31 -79 31 -78 -58 -113 c-44 -85 -57 -119 -52 -138 20 -80 304
-357 366 -357 10 0 66 25 125 56 116 61 115 61 210 21 l60 -25 37 -109 c52
-151 51 -150 100 -165 62 -18 390 -16 443 3 40 14 40 14 85 143 l45 128 79 31
79 31 113 -58 c84 -43 120 -57 138 -52 79 20 356 304 356 365 0 9 -25 66 -57
127 l-57 111 31 79 31 79 118 40 c66 22 125 44 131 48 27 17 37 93 37 267 0
173 -11 250 -37 267 -6 4 -65 26 -131 48 l-118 40 -31 79 -31 79 57 111 c32
61 57 118 57 127 0 62 -278 345 -357 365 -19 5 -52 -7 -138 -52 l-113 -58 -78
31 -79 31 -37 108 c-51 150 -52 151 -95 164 -37 11 -322 23 -353 15z m254
-154 c28 -6 32 -14 67 -120 20 -62 43 -119 51 -126 7 -6 42 -22 78 -35 36 -12
86 -33 112 -46 26 -13 59 -24 73 -24 14 0 70 23 125 50 55 28 106 50 113 50
18 0 207 -189 207 -207 0 -7 -22 -58 -50 -113 -27 -55 -50 -111 -50 -125 0
-14 11 -47 24 -73 13 -26 34 -76 46 -112 13 -36 29 -71 35 -78 7 -8 64 -31
126 -51 132 -43 127 -35 127 -191 0 -156 5 -148 -127 -191 -62 -20 -119 -43
-126 -51 -6 -7 -22 -42 -35 -78 -12 -36 -33 -86 -46 -112 -13 -26 -24 -59 -24
-73 0 -14 23 -70 50 -125 28 -55 50 -106 50 -113 0 -18 -189 -207 -207 -207
-7 0 -58 22 -113 50 -55 27 -111 50 -125 50 -14 0 -47 -11 -73 -24 -26 -13
-76 -34 -112 -46 -36 -13 -71 -29 -79 -36 -8 -7 -31 -64 -51 -126 -42 -131
-34 -126 -190 -126 -156 0 -148 -5 -190 126 -20 62 -43 119 -51 126 -8 7 -43
23 -79 36 -36 12 -86 33 -112 46 -26 13 -59 24 -73 24 -14 0 -70 -22 -125 -50
-55 -27 -106 -50 -113 -50 -18 0 -207 189 -207 207 0 7 23 58 50 113 28 55 50
110 50 123 0 13 -15 57 -34 98 -19 41 -40 94 -47 118 -16 54 -34 66 -162 105
-119 38 -115 31 -115 186 0 156 -4 149 116 186 128 40 145 51 161 105 7 24 28
77 47 118 19 41 34 85 34 98 0 13 -22 68 -50 123 -27 55 -50 106 -50 113 0 18
189 207 207 207 7 0 58 -22 113 -50 55 -27 111 -50 125 -50 14 0 47 11 73 24
26 13 76 34 112 46 36 13 71 29 78 35 8 7 31 64 51 126 43 132 35 127 191 127
52 0 108 -3 124 -7z"/>
<path d="M2473 4579 c-130 -13 -320 -86 -379 -144 -46 -46 -36 -67 103 -207
70 -71 138 -131 150 -134 12 -3 47 4 78 15 75 28 184 28 267 0 34 -11 71 -18
82 -15 12 3 79 63 149 134 134 135 144 154 111 200 -28 41 -185 112 -295 135
-98 21 -178 25 -266 16z m269 -171 c117 -30 119 -33 54 -97 l-55 -54 -56 12
c-31 7 -87 13 -125 13 -38 0 -94 -6 -125 -13 l-56 -12 -54 53 c-30 29 -52 57
-49 61 8 14 136 50 204 58 85 10 167 4 262 -21z"/>
<path d="M1884 4225 c-35 -35 -100 -176 -124 -270 -16 -58 -21 -111 -21 -195
0 -84 5 -137 21 -195 24 -94 89 -235 124 -270 47 -47 67 -37 208 102 71 70
131 137 134 149 3 11 -4 48 -15 82 -28 81 -28 183 0 264 11 34 18 71 15 82 -3
12 -63 79 -134 149 -141 139 -161 149 -208 102z m167 -340 c-16 -72 -16 -178
0 -250 l12 -56 -54 -55 c-64 -65 -66 -64 -99 59 -37 138 -27 309 26 437 l15
34 56 -56 56 -57 -12 -56z"/>
<path d="M3028 4123 c-71 -70 -131 -137 -134 -149 -3 -11 4 -48 15 -82 13 -39
21 -87 21 -132 0 -45 -8 -93 -21 -132 -11 -34 -18 -71 -15 -82 3 -12 63 -79
134 -149 141 -139 161 -149 208 -102 36 36 100 176 124 270 15 58 21 112 21
195 0 83 -6 137 -21 195 -24 94 -88 234 -124 270 -47 47 -67 37 -208 -102z
m182 -186 c30 -111 30 -243 0 -354 -33 -123 -35 -124 -99 -59 l-54 55 12 56
c7 31 13 87 13 125 0 38 -6 94 -13 125 l-12 56 54 55 c64 65 66 64 99 -59z"/>
<path d="M2465 3963 c-82 -43 -125 -113 -125 -203 0 -130 90 -220 220 -220
130 0 220 90 220 220 0 90 -42 160 -122 201 -47 24 -150 25 -193 2z m147 -150
c23 -20 24 -80 1 -105 -20 -23 -80 -24 -105 -1 -23 20 -24 80 -1 105 20 23 80
24 105 1z"/>
<path d="M2203 3297 c-146 -146 -156 -165 -108 -213 36 -35 176 -100 270 -124
110 -29 279 -29 390 0 94 24 234 89 270 124 47 47 37 67 -102 208 -70 71 -137
131 -149 134 -11 3 -48 -4 -82 -15 -80 -27 -187 -27 -262 -1 -30 11 -64 19
-75 20 -12 0 -70 -51 -152 -133z m237 -47 c50 -15 177 -14 244 1 l57 12 56
-55 56 -56 -38 -16 c-153 -64 -361 -64 -514 0 l-35 15 54 54 c57 58 65 61 120
45z"/>
<path d="M275 4557 c-112 -38 -190 -105 -239 -207 l-31 -65 0 -1200 0 -1200
24 -64 c13 -36 176 -316 370 -638 l348 -573 -49 -263 c-26 -144 -48 -270 -48
-280 0 -10 11 -29 25 -42 l24 -25 869 0 c851 0 869 0 889 20 13 11 25 38 28
63 4 24 5 282 3 573 -5 592 -4 578 -79 734 -41 85 -44 88 -628 673 -630 632
-623 626 -750 648 -87 16 -158 0 -273 -59 -5 -2 -8 323 -8 722 0 649 2 726 15
726 27 0 110 -92 123 -136 9 -30 12 -177 12 -543 l0 -502 25 -24 c31 -32 69
-32 101 0 l25 25 -3 532 -3 533 -31 65 c-17 36 -51 85 -75 109 -42 42 -147
101 -180 101 -10 0 -20 16 -28 43 -29 99 -109 189 -207 234 -67 30 -188 40
-249 20z m166 -148 c50 -16 105 -61 132 -112 l22 -42 5 -1000 5 -1000 33 -70
c31 -66 67 -104 585 -622 488 -489 556 -553 583 -553 43 0 74 32 74 78 0 35
-22 59 -544 582 -299 300 -552 560 -561 579 -22 45 -22 138 0 182 24 47 63 87
107 110 50 26 146 26 196 0 53 -28 1152 -1134 1187 -1194 65 -113 65 -117 65
-683 l0 -514 -755 0 c-597 0 -755 3 -755 13 0 6 18 117 41 244 l42 232 -198
328 c-109 181 -273 452 -364 603 -120 198 -170 290 -179 328 -16 72 -17 2307
-1 2366 6 21 30 59 52 83 63 66 142 87 228 62z"/>
<path d="M4649 4557 c-107 -30 -211 -124 -248 -223 -12 -30 -21 -59 -21 -64 0
-6 -8 -10 -17 -10 -37 0 -140 -59 -185 -106 -26 -27 -60 -76 -75 -109 l-28
-60 -3 -533 -3 -532 25 -25 c32 -32 70 -32 101 0 l25 24 0 502 c0 366 3 513
12 543 13 44 96 136 123 136 13 0 15 -77 15 -725 0 -399 -2 -725 -4 -725 -3 0
-20 9 -38 20 -91 53 -213 60 -328 18 -51 -19 -98 -63 -633 -597 -318 -317
-592 -595 -608 -619 -45 -64 -87 -153 -105 -224 -14 -53 -17 -144 -21 -592 -3
-291 -2 -549 2 -573 3 -25 15 -52 28 -63 20 -20 38 -20 889 -20 l869 0 24 25
c14 13 25 32 25 42 0 10 -22 136 -48 280 l-49 263 347 573 c197 324 358 601
371 638 l24 64 0 1200 0 1200 -31 65 c-62 129 -181 210 -318 217 -39 1 -92 -3
-117 -10z m166 -148 c25 -7 58 -29 86 -58 29 -28 51 -61 58 -86 16 -60 15
-2294 -1 -2367 -9 -38 -60 -131 -179 -328 -91 -151 -255 -422 -364 -603 l-198
-328 42 -232 c23 -127 41 -238 41 -244 0 -10 -158 -13 -755 -13 l-755 0 0 514
c0 566 0 570 65 683 35 60 1134 1166 1187 1194 50 26 146 26 196 0 44 -23 83
-63 107 -110 22 -44 22 -137 0 -182 -9 -19 -262 -279 -561 -579 -522 -523
-544 -547 -544 -582 0 -46 31 -78 74 -78 27 0 95 64 583 553 518 518 554 556
585 622 l33 70 5 1000 5 1000 22 42 c53 98 159 142 268 112z"/>
</g>
</svg>
