<?xml version="1.0" standalone="no"?>
<!DOCTYPE svg PUBLIC "-//W3C//DTD SVG 20010904//EN"
 "http://www.w3.org/TR/2001/REC-SVG-20010904/DTD/svg10.dtd">
<svg version="1.0" xmlns="http://www.w3.org/2000/svg"
  viewBox="0 0 640.000000 182.000000"
 preserveAspectRatio="xMidYMid meet">
<metadata>
Created by potrace 1.16, written by Peter Selinger 2001-2019
</metadata>
<g transform="translate(0.000000,182.000000) scale(0.100000,-0.100000)"
fill="#000000" stroke="none">
<path d="M1210 911 l0 -311 153 0 c139 0 157 2 197 22 56 29 82 73 84 141 1
67 -18 112 -61 142 -33 22 -33 24 -16 36 38 28 53 62 53 120 0 47 -5 63 -26
89 -46 55 -75 63 -236 68 l-148 5 0 -312z m262 169 c25 -30 23 -56 -7 -85 -19
-20 -34 -25 -75 -25 l-50 0 0 71 0 71 57 -4 c43 -4 61 -10 75 -28z m15 -243
c23 -22 22 -81 -2 -107 -15 -16 -30 -20 -82 -20 l-63 0 0 76 0 76 65 -4 c43
-3 71 -10 82 -21z"/>
<path d="M1640 1160 l0 -60 90 0 90 0 0 -250 0 -250 65 0 65 0 0 250 0 250 78
0 78 0 17 53 c9 30 17 57 17 60 0 4 -112 7 -250 7 l-250 0 0 -60z"/>
<path d="M2170 910 l0 -310 148 0 c133 0 152 2 192 23 80 40 113 121 90 218
-15 61 -62 113 -117 128 -21 6 -71 11 -110 11 l-73 0 0 60 0 60 119 0 119 0
20 60 21 60 -205 0 -204 0 0 -310z m275 -65 c16 -15 25 -36 25 -55 0 -19 -9
-40 -25 -55 -20 -21 -34 -25 -85 -25 l-60 0 0 80 0 80 60 0 c51 0 65 -4 85
-25z"/>
<path d="M2880 910 l0 -310 60 0 59 0 3 137 3 136 85 -134 86 -134 73 -3 c59
-2 72 0 68 11 -3 7 -50 80 -106 161 -56 81 -101 150 -101 153 0 3 45 68 100
144 55 77 100 141 100 144 0 3 -31 5 -69 5 l-70 0 -83 -127 -83 -127 -3 127
-3 127 -59 0 -60 0 0 -310z"/>
<path d="M3410 1046 c-33 -12 -35 -16 -38 -64 l-3 -52 53 25 c29 14 65 25 79
25 35 0 79 -36 79 -65 0 -21 -6 -23 -67 -30 -81 -8 -120 -23 -153 -60 -22 -23
-25 -36 -25 -95 0 -58 4 -72 24 -94 48 -51 145 -59 203 -16 28 21 28 21 28 0
0 -18 6 -20 55 -20 l55 0 0 133 c0 189 -11 253 -50 291 -29 29 -35 31 -118 33
-52 2 -101 -3 -122 -11z m170 -275 c0 -54 -34 -94 -80 -94 -52 0 -78 54 -47
97 13 17 59 33 105 35 19 1 22 -4 22 -38z"/>
<path d="M3770 830 l0 -230 60 0 60 0 0 185 0 185 65 0 65 0 0 -185 0 -185 60
0 60 0 0 230 0 230 -185 0 -185 0 0 -230z"/>
<path d="M4220 830 l0 -230 58 0 57 0 72 143 72 142 0 -142 1 -143 55 0 55 0
0 230 0 230 -58 0 -57 0 -70 -140 -70 -140 3 140 4 140 -61 0 -61 0 0 -230z"/>
<path d="M4640 1015 l0 -45 55 0 55 0 0 -185 0 -185 60 0 60 0 0 185 0 185 55
0 55 0 0 45 0 45 -170 0 -170 0 0 -45z"/>
<path d="M5073 1045 c-31 -13 -33 -17 -33 -65 0 -51 0 -51 23 -35 32 23 94 37
128 30 27 -6 59 -46 59 -73 0 -5 -30 -13 -67 -17 -129 -13 -182 -54 -190 -143
-8 -94 55 -157 150 -149 28 2 60 13 78 26 29 21 29 21 29 1 0 -18 6 -20 56
-20 l56 0 -4 183 c-3 206 -12 237 -73 263 -44 18 -170 18 -212 -1z m173 -277
c-12 -75 -73 -114 -119 -77 -61 47 -6 115 97 118 28 1 28 0 22 -41z"/>
<path d="M5468 887 c-3 -184 -11 -214 -49 -202 -17 6 -19 1 -19 -38 0 -49 9
-57 61 -57 75 0 98 42 110 204 4 66 9 133 9 149 0 25 3 27 45 27 l45 0 0 -185
0 -185 60 0 60 0 0 230 0 230 -159 0 -159 0 -4 -173z"/>
</g>
</svg>
