<svg id="Logos" xmlns="http://www.w3.org/2000/svg" xmlns:xlink="http://www.w3.org/1999/xlink" viewBox="0 0 245.03 56.12"><defs><style>.cls-1{fill:#eceae6;}.cls-2{fill:#350f10;}.cls-3{fill:#721f00;}.cls-4{fill:#e84e0f;}.cls-5{fill:url(#linear-gradient);}.cls-6{fill:url(#linear-gradient-2);}.cls-7{fill:url(#linear-gradient-3);}.cls-8{fill:url(#linear-gradient-4);}.cls-9{fill:url(#linear-gradient-5);}.cls-10{fill:url(#linear-gradient-6);}.cls-11{fill:url(#linear-gradient-7);}.cls-12{fill:url(#linear-gradient-8);}</style><linearGradient id="linear-gradient" x1="-268.48" y1="378.37" x2="-265.79" y2="373.93" gradientTransform="translate(-154.43 -243.27) rotate(-90)" gradientUnits="userSpaceOnUse"><stop offset="0" stop-color="#350f10"/><stop offset="1" stop-color="#721f00"/></linearGradient><linearGradient id="linear-gradient-2" x1="-266.15" y1="360.25" x2="-257.87" y2="360.25" gradientTransform="translate(-154.43 -243.27) rotate(-90)" gradientUnits="userSpaceOnUse"><stop offset="0" stop-color="#48190c"/><stop offset="0.97" stop-color="#350f10"/></linearGradient><linearGradient id="linear-gradient-3" x1="-299.69" y1="365.25" x2="-294.18" y2="359.8" gradientTransform="translate(-154.43 -243.27) rotate(-90)" gradientUnits="userSpaceOnUse"><stop offset="0" stop-color="#721f00"/><stop offset="1" stop-color="#350f10"/></linearGradient><linearGradient id="linear-gradient-4" x1="-300.67" y1="364.26" x2="-295.16" y2="358.81" gradientTransform="translate(-154.43 -243.27) rotate(-90)" gradientUnits="userSpaceOnUse"><stop offset="0" stop-color="#d7d2cb"/><stop offset="1" stop-color="#fff"/></linearGradient><linearGradient id="linear-gradient-5" x1="-274.42" y1="381.78" x2="-266.15" y2="381.78" gradientTransform="translate(-154.43 -243.27) rotate(-90)" gradientUnits="userSpaceOnUse"><stop offset="0" stop-color="#6f2a0d"/><stop offset="1" stop-color="#200a0a"/></linearGradient><linearGradient id="linear-gradient-6" x1="-274.42" y1="383.16" x2="-266.15" y2="383.16" xlink:href="#linear-gradient-5"/><linearGradient id="linear-gradient-7" x1="-266.4" y1="378.85" x2="-270.56" y2="383.01" xlink:href="#linear-gradient"/><linearGradient id="linear-gradient-8" x1="-266.28" y1="363.42" x2="-269.21" y2="368.02" gradientTransform="translate(-154.43 -243.27) rotate(-90)" gradientUnits="userSpaceOnUse"><stop offset="0" stop-color="#48190c"/><stop offset="1" stop-color="#350f10"/></linearGradient></defs><title>Credendo_100Years_Pos_CMYK_Hor</title><path class="cls-1" d="M16.29,2.19V.81h8.28A1.38,1.38,0,0,1,26,2.19V3.56H17.67A1.37,1.37,0,0,1,16.29,2.19Zm104.82,11h-8.28V14.6A1.38,1.38,0,0,0,114.21,16h8.28V14.6A1.38,1.38,0,0,0,121.11,13.22Zm99.61,0h-8.27V14.6A1.38,1.38,0,0,0,213.83,16h8.27V14.6A1.38,1.38,0,0,0,220.72,13.22ZM193.8,14.6a1.38,1.38,0,0,0-1.38-1.38h-8.27V14.6A1.37,1.37,0,0,0,185.52,16h8.28ZM166.93,27a1.37,1.37,0,0,0-1.37-1.38H156.4l6.72-8.76-1.72-2.3-6.88,9v4.85h12.41ZM159.35,2.19a1.37,1.37,0,0,0,1.38,1.37h9.11l-6.7,8.74,1.73,2.3,6.89-9h0V2.19A1.38,1.38,0,0,1,173.14.81H159.35ZM9.43,29.77a1.38,1.38,0,0,0-1.38-1.38H2.54a1.38,1.38,0,0,0-1.38,1.38v1.38H8.05A1.38,1.38,0,0,0,9.43,29.77Zm6.48-13a1.39,1.39,0,0,0,1.11.55h2.75L11.91,6.88a1.38,1.38,0,1,0-2.2,1.65ZM229.69.81a1.38,1.38,0,0,0-1.38,1.38V6.32a13.79,13.79,0,0,1,0,16.55V27a1.38,1.38,0,0,0,1.38,1.38h1.38V.81ZM197.94,25.63h-2.76a13.7,13.7,0,0,1-8.26,2.76h13.77V14.6a13.72,13.72,0,0,1-2.75,8.27ZM195.18,3.57h2.76V6.32a13.75,13.75,0,0,1,2.75,8.28V.81H186.9A13.69,13.69,0,0,1,195.18,3.57ZM146.62.81h0V2.19a1.38,1.38,0,0,1-1.37,1.38h1.37a4.83,4.83,0,1,1,0,9.65h-1.38a1.38,1.38,0,0,1,1.38,1.38V16h0a7.53,7.53,0,0,0,5.14-2V2.82a7.53,7.53,0,0,0-5.14-2ZM128,28.39h1.38V14.6a13.66,13.66,0,0,1-2.76,8.27V27A1.38,1.38,0,0,0,128,28.39ZM128,.81a1.38,1.38,0,0,0-1.38,1.38V6.32a13.69,13.69,0,0,1,2.76,8.28V.81ZM98.35,3.56H90.08A11,11,0,0,1,101,13.22h.09a1.38,1.38,0,0,1,1.38,1.38V16H101a11,11,0,0,1-10.9,9.65h8.24a13.8,13.8,0,0,0,0-22.07ZM61.84,28.39A13.84,13.84,0,0,0,66,27.76V24.83a11,11,0,0,1-4.14.8H60.47A1.38,1.38,0,0,1,61.84,27v1.38ZM75.16,18.16c.07-.26.14-.53.19-.8h-.87Zm-6.43,5.05v3.33A13.85,13.85,0,0,0,74,21.07l-2-2.3A11,11,0,0,1,68.73,23.21ZM66,4.37V1.44A13.84,13.84,0,0,0,61.84.81V2.19a1.39,1.39,0,0,1-1.37,1.38h1.37A11,11,0,0,1,66,4.37Zm4.13-.8H68.73V6a11,11,0,0,1,4.14,8.61h2.76A13.76,13.76,0,0,0,70.11,3.57ZM43.91.81H42.53l-19,24.81a1.37,1.37,0,0,0,.25,1.93l1.1.84,17.67-23V27a1.38,1.38,0,0,0,1.38,1.38h1.38V22.87a13.79,13.79,0,0,1,0-16.55V2.19A1.38,1.38,0,0,0,43.91.81Z" transform="translate(-1.16 -0.81)"/><path class="cls-2" d="M137,14.6V13.22h8.27a1.38,1.38,0,0,1,1.38,1.38V16h-8.27A1.38,1.38,0,0,1,137,14.6ZM56.32.81A13.79,13.79,0,0,0,42.53,14.6h0a1.38,1.38,0,1,0,2.76,0h0a11,11,0,0,1,11-11,1.38,1.38,0,1,0,0-2.76Zm11,2.76h8.27a1.38,1.38,0,1,0,0-2.76H66V2.19A1.38,1.38,0,0,0,67.36,3.57ZM90.08,27V2.19A1.38,1.38,0,0,0,88.7.81H87.32V28.39H88.7A1.38,1.38,0,0,0,90.08,27Zm20,0V2.19A1.38,1.38,0,0,0,108.7.81h-1.38V28.39h1.38A1.38,1.38,0,0,0,110.08,27Zm24.13,0V2.19A1.38,1.38,0,0,0,132.83.81h-1.38V28.39h1.38A1.38,1.38,0,0,0,134.21,27ZM75.63,14.6a1.38,1.38,0,0,0,0,2.76h0A8.28,8.28,0,0,0,83.9,9.08a1.38,1.38,0,1,0-2.75,0,5.52,5.52,0,0,1-5.52,5.52Zm26.86,0a1.38,1.38,0,0,0-1.38-1.38H92.84V14.6A1.37,1.37,0,0,0,94.21,16h8.28ZM180,.81h-1.38V28.39H180A1.38,1.38,0,0,0,181.39,27V2.19A1.38,1.38,0,0,0,180,.81Zm-25.49,0v4.6l17.24,23v-4.6L154.52.81Z" transform="translate(-1.16 -0.81)"/><path class="cls-3" d="M146.62,27v1.38H132.84A1.38,1.38,0,0,0,134.21,27V25.63h11A1.38,1.38,0,0,1,146.62,27ZM75.63.81a1.38,1.38,0,1,1,0,2.76,5.52,5.52,0,0,1,5.52,5.51,1.38,1.38,0,1,1,2.75,0A8.27,8.27,0,0,0,75.63.81ZM186.9.81H180a1.38,1.38,0,0,1,1.38,1.38V3.57h5.51a11,11,0,1,1,0,22.06h-5.51V27A1.38,1.38,0,0,1,180,28.39h6.88a13.79,13.79,0,0,0,0-27.58ZM171.76,28.39h2.76V.81h-1.38a1.38,1.38,0,0,0-1.38,1.38ZM146.62.81V2.19a1.38,1.38,0,0,1-1.38,1.38h-11V2.19A1.38,1.38,0,0,0,132.83.81Zm5.14,27.58h2.76V.81h-1.38a1.38,1.38,0,0,0-1.38,1.38ZM115.59.81H108.7a1.38,1.38,0,0,1,1.38,1.38V3.56h5.51a11,11,0,0,1,0,22.07h-5.51V27a1.39,1.39,0,0,1-1.37,1.38h6.88a13.79,13.79,0,0,0,0-27.58ZM101.11,25.63h-11V27a1.38,1.38,0,0,1-1.37,1.38h13.78V27A1.38,1.38,0,0,0,101.11,25.63ZM102.49.81V2.19a1.37,1.37,0,0,1-1.38,1.37h-11V2.19A1.38,1.38,0,0,0,88.7.81ZM67.36,3.57A1.38,1.38,0,0,1,66,2.19v26.2h2.75V3.57Zm8.27,13.79a1.38,1.38,0,0,1,0-2.76H71.49a1.37,1.37,0,0,0-1,2.29h0l9.79,11.49h3.62l-9.39-11ZM60.46,25.63H56.32a11,11,0,0,1-11-11,1.38,1.38,0,0,1-2.76,0h0A13.79,13.79,0,0,0,56.32,28.39h5.52V27A1.38,1.38,0,0,0,60.46,25.63ZM56.32.81a1.38,1.38,0,1,1,0,2.76h4.14a1.38,1.38,0,0,0,1.38-1.38V.81Z" transform="translate(-1.16 -0.81)"/><path class="cls-4" d="M242.16,41.53l-6.86,3.28V42.48l4.85-2-4.85-2V36.11l6.86,3.27H246v2.15Z" transform="translate(-1.16 -0.81)"/><path class="cls-4" d="M235.3,34.94v-6h1.89v3.85h2.43V29h1.89v3.78h2.58V28.94H246v6Z" transform="translate(-1.16 -0.81)"/><path class="cls-4" d="M246,25.79v2.34L235.3,23.8V21.9L246,17.67V20l-2.1.78V25Zm-8.15-2.85,4.33,1.52V21.38Z" transform="translate(-1.16 -0.81)"/><path class="cls-4" d="M235.3,16.59V13.35a5.5,5.5,0,0,1,.67-3.19,3.5,3.5,0,0,1,2.91-1.36,3.42,3.42,0,0,1,2,.58A2.8,2.8,0,0,1,242,11.14l4-2.39V11l-5,2.87v-.42a3.4,3.4,0,0,0-.39-1.92,2,2,0,0,0-1.56-.68,1.84,1.84,0,0,0-1.55.8,2.81,2.81,0,0,0-.33,1.52v1.25H246v2.16Z" transform="translate(-1.16 -0.81)"/><path class="cls-4" d="M242.66,5.91c1.45-.08,1.72-1,1.72-1.51A1.45,1.45,0,0,0,243,2.94c-.91,0-1.14.77-1.74,2.26-.29.81-.95,2.67-3,2.67a3.3,3.3,0,0,1-3.17-3.54A3.15,3.15,0,0,1,238.21,1V3.07c-.49.09-1.31.28-1.31,1.33a1.25,1.25,0,0,0,1.21,1.32c.8,0,1-.56,1.75-2.37.71-1.63,1.49-2.54,3-2.54a3.2,3.2,0,0,1,3.32,3.56c0,2.43-1.46,3.69-3.53,3.67Z" transform="translate(-1.16 -0.81)"/><path class="cls-3" d="M206.24,14.6h0a11,11,0,0,1,11-11h0a11,11,0,0,1,11,11h0a1.38,1.38,0,0,1,2.76,0A13.79,13.79,0,0,0,217.27.81h0A13.79,13.79,0,0,0,203.48,14.6h2.76" transform="translate(-1.16 -0.81)"/><path class="cls-5" d="M208.15,20.81A11.21,11.21,0,0,0,210,22.87a11,11,0,0,1,7.29-2.75h0l.15,0-.13,0a11,11,0,0,1,7.28,2.75,11.15,11.15,0,0,0,1.82-2.06,13.71,13.71,0,0,0-9.12-3.45h0A13.73,13.73,0,0,0,208.15,20.81Z" transform="translate(-1.16 -0.81)"/><path class="cls-6" d="M208.15,20.81a11,11,0,0,1-1.91-6.21h-2.76a13.73,13.73,0,0,0,2.76,8.27A14.35,14.35,0,0,1,208.15,20.81Z" transform="translate(-1.16 -0.81)"/><path class="cls-2" d="M226.4,41.49a13.93,13.93,0,0,0,1.21-1.22h0a13.75,13.75,0,0,0,3.45-9.12h0a1.38,1.38,0,0,0-2.76,0,11,11,0,0,1-3.74,8.27h0a11,11,0,0,1-7.3,2.76h0A11,11,0,0,1,210,39.42h0a10.89,10.89,0,0,1-1.83-2.06h0a11.09,11.09,0,0,1-1.91-6.21,1.38,1.38,0,0,0-2.76,0h0a13.85,13.85,0,0,0,4.67,10.34h0a13.82,13.82,0,0,0,9.12,3.45h0a13.71,13.71,0,0,0,9.12-3.45" transform="translate(-1.16 -0.81)"/><path class="cls-3" d="M206.24,22.87a13.76,13.76,0,0,0-2.76,8.28h0a1.38,1.38,0,0,1,2.76,0A11,11,0,0,1,210,22.87a11.21,11.21,0,0,1-1.83-2.06A14.35,14.35,0,0,0,206.24,22.87Z" transform="translate(-1.16 -0.81)"/><path class="cls-2" d="M203.57,50.91a1.39,1.39,0,0,0,1.29.9h12.41a1.38,1.38,0,0,0,0-2.76H203.48v1.38A1.51,1.51,0,0,0,203.57,50.91Z" transform="translate(-1.16 -0.81)"/><path class="cls-3" d="M218.65,50.43a1.37,1.37,0,0,1-1.37,1.38h13.79V49.05h-13.8A1.38,1.38,0,0,1,218.65,50.43Z" transform="translate(-1.16 -0.81)"/><path class="cls-7" d="M208.19,51.81h-3.33a1.36,1.36,0,0,1-.94-.38l5.09,5.1a1.39,1.39,0,0,0,2,0l1-1-3.74-3.74Z" transform="translate(-1.16 -0.81)"/><path class="cls-8" d="M203.86,51.36v0l0,0Z" transform="translate(-1.16 -0.81)"/><path class="cls-9" d="M226.4,24.94a13.92,13.92,0,0,0,1.91-2.07h0a13.92,13.92,0,0,1-1.91,2.07,11,11,0,0,1,1.91,6.21h0A11,11,0,0,0,226.4,24.94Z" transform="translate(-1.16 -0.81)"/><path class="cls-10" d="M231.07,31.15h0a13.76,13.76,0,0,0-2.76-8.28,13.92,13.92,0,0,1-1.91,2.07,11,11,0,0,1,1.91,6.21h0A1.38,1.38,0,0,1,231.07,31.15Z" transform="translate(-1.16 -0.81)"/><path class="cls-11" d="M231.07,31.15h0a13.76,13.76,0,0,0-2.76-8.28,13.92,13.92,0,0,1-1.91,2.07,11,11,0,0,1,1.91,6.21h0A1.38,1.38,0,0,1,231.07,31.15Z" transform="translate(-1.16 -0.81)"/><path class="cls-2" d="M206.21,14.31a1.38,1.38,0,0,0-2.73.29h2.76Z" transform="translate(-1.16 -0.81)"/><path class="cls-2" d="M226.4,24.94a13.93,13.93,0,0,0,1.21-1.22h0l.69-.85h0a13.73,13.73,0,0,0,2.76-8.27h0a1.38,1.38,0,0,0-2.76,0,11,11,0,0,1-3.74,8.27h0a11,11,0,0,1-7.3,2.76h0A11,11,0,0,1,210,22.87a11.27,11.27,0,0,0-1.83,2.07,13.73,13.73,0,0,0,9.12,3.45h0a13.75,13.75,0,0,0,9.13-3.45" transform="translate(-1.16 -0.81)"/><path class="cls-12" d="M217.27,28.39h0V25.63h0A11,11,0,0,1,210,22.87a11.27,11.27,0,0,0-1.83,2.07,13.73,13.73,0,0,0,9.12,3.45Z" transform="translate(-1.16 -0.81)"/></svg>