<?xml version="1.0" standalone="no"?>
<!DOCTYPE svg PUBLIC "-//W3C//DTD SVG 20010904//EN"
 "http://www.w3.org/TR/2001/REC-SVG-20010904/DTD/svg10.dtd">
<svg version="1.0" xmlns="http://www.w3.org/2000/svg"
 width="512.000000pt" height="512.000000pt" viewBox="0 0 512.000000 512.000000"
 preserveAspectRatio="xMidYMid meet">

<g transform="translate(0.000000,512.000000) scale(0.100000,-0.100000)"
fill="#345a80" stroke="none">
<path d="M993 5101 c-26 -12 -52 -35 -70 -62 l-28 -42 -3 -303 -3 -303 -303
-3 -303 -3 -42 -28 c-27 -18 -50 -44 -62 -70 -18 -41 -19 -100 -19 -2090 0
-1820 2 -2052 15 -2084 21 -50 42 -72 90 -94 37 -17 80 -19 668 -19 384 0 635
4 646 10 10 5 24 22 30 39 10 24 10 34 -3 60 -9 17 -18 32 -19 33 -1 2 -288 5
-637 8 l-635 5 -3 2029 c-1 1491 1 2032 9 2042 10 12 196 14 1100 14 l1089 0
0 -272 c0 -157 5 -289 10 -310 14 -50 55 -97 105 -119 36 -17 70 -19 323 -19
l282 0 0 -264 c0 -242 -1 -264 -17 -271 -10 -4 -166 -60 -346 -126 l-328 -119
-310 0 c-252 0 -315 -3 -338 -15 -47 -24 -56 -78 -18 -113 21 -20 34 -22 127
-22 57 0 100 -4 95 -8 -6 -5 -118 -48 -250 -95 l-240 -87 -481 0 c-472 0 -482
0 -508 -21 -33 -26 -36 -79 -6 -109 19 -19 33 -20 306 -20 l285 0 -28 -37
c-23 -30 -28 -46 -28 -95 l0 -58 -256 0 c-243 0 -256 -1 -277 -20 -30 -28 -29
-80 1 -108 22 -21 32 -22 307 -24 l284 -3 28 -75 c15 -41 31 -83 34 -93 5 -16
-14 -17 -315 -17 -308 0 -322 -1 -341 -20 -30 -30 -27 -83 6 -109 26 -20 38
-21 369 -21 l342 0 32 -88 c17 -48 31 -91 31 -95 0 -4 -170 -7 -378 -7 -427 0
-422 1 -422 -69 0 -26 7 -44 21 -57 20 -18 46 -19 431 -24 l410 -5 29 -79 c16
-44 29 -83 29 -88 0 -4 -198 -9 -439 -10 -415 -3 -440 -4 -460 -22 -27 -25
-28 -79 -1 -106 19 -19 33 -20 488 -20 467 0 469 0 488 -21 24 -28 91 -58 126
-59 15 0 78 18 139 40 l112 40 474 0 c460 0 474 1 493 20 25 25 26 71 1 101
-19 24 -21 24 -281 29 l-262 5 404 147 c222 81 411 150 421 153 16 7 17 -25
17 -587 0 -449 -3 -597 -12 -606 -9 -9 -175 -12 -683 -12 l-672 0 -21 -23
c-31 -33 -29 -80 4 -106 26 -21 34 -21 707 -21 673 0 681 0 725 21 26 13 54
38 70 62 l27 40 3 303 3 303 303 3 303 3 41 27 c78 52 76 41 82 507 l5 414
376 138 c207 75 388 145 402 154 31 20 67 90 67 131 0 36 -421 1198 -447 1232
-27 36 -81 62 -128 61 -22 0 -92 -19 -155 -43 l-115 -43 -5 145 c-5 136 -6
145 -29 163 -30 24 -62 24 -92 0 -23 -19 -24 -25 -29 -193 l-5 -173 -280 -102
c-154 -57 -283 -103 -287 -103 -5 0 -8 129 -8 287 l0 288 -383 382 -382 383
-788 0 -787 0 0 278 c0 203 3 281 12 290 9 9 267 12 1099 12 l1088 0 3 -292
c3 -254 5 -297 20 -324 23 -43 71 -81 116 -94 21 -5 153 -10 310 -10 l272 0 0
-180 c0 -179 0 -181 25 -205 13 -14 36 -25 50 -25 14 0 37 11 50 25 l25 24 0
238 0 237 -378 378 -378 378 -1159 0 c-1118 0 -1162 -1 -1202 -19z m2632 -471
l230 -230 -217 0 c-184 0 -219 2 -232 16 -14 13 -16 48 -16 230 0 118 1 214 3
214 1 0 106 -103 232 -230z m-721 -958 c-151 -2 -221 1 -230 9 -11 9 -14 57
-14 233 l0 221 230 -230 230 -230 -216 -3z m1699 -993 c115 -315 204 -576 200
-580 -7 -7 -3080 -1129 -3093 -1129 -6 0 -420 1130 -420 1147 0 5 71 35 158
66 86 31 780 284 1542 561 762 278 1390 505 1395 505 6 1 104 -256 218 -570z
m-654 -1785 c-9 -11 -67 -14 -290 -14 l-279 0 0 268 0 268 288 105 287 105 3
-360 c2 -256 -1 -363 -9 -372z"/>
<path d="M3885 2884 c-146 -53 -185 -77 -185 -113 0 -9 59 -180 132 -380 126
-347 134 -364 164 -379 31 -14 37 -13 191 42 89 33 166 66 176 78 21 25 22 66
1 96 -22 32 -65 28 -188 -17 l-105 -38 -34 96 c-20 53 -38 103 -41 111 -5 12
17 24 101 54 121 44 153 66 153 108 0 33 -39 78 -67 78 -10 0 -67 -18 -127
-40 -60 -23 -112 -37 -116 -33 -4 4 -21 45 -38 90 l-30 82 42 15 c22 9 72 27
111 41 86 32 105 48 105 92 0 41 -30 73 -67 73 -16 -1 -95 -26 -178 -56z"/>
<path d="M3432 2718 c-14 -7 -52 -69 -110 -179 -48 -93 -89 -169 -92 -169 -3
0 -21 43 -39 95 -35 100 -55 125 -101 125 -33 0 -70 -38 -70 -71 0 -23 236
-684 260 -729 27 -51 107 -44 130 11 11 26 8 41 -29 141 -22 61 -39 113 -37
115 2 2 81 -35 176 -82 94 -47 183 -85 196 -85 30 0 74 42 74 70 0 47 -24 63
-236 166 -118 57 -214 107 -214 112 0 4 43 90 95 192 52 102 98 195 101 207 9
33 -4 62 -36 78 -33 17 -37 17 -68 3z"/>
<path d="M2496 2367 c-22 -22 -23 -27 -29 -332 -11 -516 -11 -522 18 -550 29
-30 64 -32 96 -6 22 17 24 29 29 127 l5 108 135 49 134 48 46 -53 c99 -117
121 -128 174 -87 18 15 26 30 26 53 0 28 -33 71 -241 312 -133 153 -257 296
-277 317 -43 44 -81 49 -116 14z m231 -374 l53 -60 -74 -27 c-98 -34 -100 -34
-92 12 3 20 6 73 6 117 l1 80 27 -31 c15 -17 51 -58 79 -91z"/>
<path d="M1920 2169 c-91 -33 -173 -68 -184 -79 -10 -10 -18 -29 -18 -43 0
-37 253 -728 274 -749 41 -41 118 -8 118 52 0 16 -22 91 -50 167 -27 76 -50
142 -50 148 0 6 37 23 83 39 106 37 153 61 161 81 19 51 -13 105 -63 105 -16
0 -73 -16 -126 -35 -54 -20 -102 -34 -108 -32 -8 2 -67 149 -67 168 0 4 53 26
118 49 134 49 162 69 162 116 0 35 -37 75 -69 73 -9 0 -90 -27 -181 -60z"/>
<path d="M1222 3713 c-7 -3 -19 -18 -28 -35 -13 -25 -13 -35 -3 -59 6 -17 20
-34 30 -39 11 -6 226 -10 544 -10 525 0 556 2 577 34 15 22 8 76 -12 96 -20
20 -33 20 -557 19 -296 0 -544 -3 -551 -6z"/>
<path d="M1683 3410 c-47 -19 -56 -78 -18 -115 22 -22 32 -25 105 -25 73 0 83
3 105 25 14 13 25 31 25 39 0 28 -22 64 -47 75 -28 13 -138 14 -170 1z"/>
<path d="M612 3054 c-30 -21 -31 -83 -1 -110 20 -18 45 -19 503 -22 314 -2
493 1 517 7 23 7 40 20 47 36 17 36 15 48 -9 79 l-20 26 -508 0 c-442 0 -509
-2 -529 -16z"/>
<path d="M1870 3048 c-42 -45 -15 -111 52 -123 18 -3 248 -5 511 -3 l479 3 19
24 c25 30 24 76 -1 101 -19 19 -33 20 -530 20 l-509 0 -21 -22z"/>
<path d="M640 2733 c-51 -19 -68 -85 -30 -123 19 -19 33 -20 529 -20 l510 0
20 26 c34 43 24 86 -26 112 -16 9 -155 12 -505 11 -266 0 -490 -3 -498 -6z"/>
<path d="M617 690 c-34 -27 -37 -80 -7 -110 19 -19 33 -20 529 -20 l510 0 20
26 c26 33 27 65 2 95 l-19 24 -504 3 c-500 3 -505 2 -531 -18z"/>
<path d="M1875 685 c-30 -30 -32 -64 -4 -99 l20 -26 510 0 c496 0 510 1 529
20 30 30 27 83 -6 109 -26 21 -36 21 -526 21 l-499 0 -24 -25z"/>
</g>
</svg>
