<?xml version="1.0" standalone="no"?>
<!DOCTYPE svg PUBLIC "-//W3C//DTD SVG 20010904//EN"
 "http://www.w3.org/TR/2001/REC-SVG-20010904/DTD/svg10.dtd">
<svg version="1.0" xmlns="http://www.w3.org/2000/svg"
 width="512.000000pt" height="512.000000pt" viewBox="0 0 512.000000 512.000000"
 preserveAspectRatio="xMidYMid meet">

<g transform="translate(0.000000,512.000000) scale(0.100000,-0.100000)"
fill="#345a80" stroke="none">
<path d="M2513 4420 c-11 -5 -47 -40 -80 -79 l-58 -71 -794 0 c-829 0 -842 -1
-895 -44 -21 -18 -609 -934 -652 -1017 -21 -42 -17 -75 15 -111 l29 -33 176
-3 176 -3 0 -799 c0 -464 -4 -801 -9 -804 -19 -12 -79 -113 -94 -160 -10 -27
-17 -78 -17 -112 l0 -62 -40 -7 c-84 -14 -120 -71 -120 -188 l0 -75 -57 -4
c-43 -4 -61 -10 -75 -28 -25 -31 -23 -66 7 -95 l24 -25 2511 0 2511 0 24 25
c30 29 32 64 6 96 -19 24 -23 24 -215 27 l-196 3 0 1104 0 1104 176 3 176 3
29 33 c32 36 36 69 15 111 -43 83 -631 999 -652 1017 -53 43 -66 44 -895 44
l-794 0 -58 71 c-72 86 -112 104 -174 79z m534 -747 c263 -317 486 -587 496
-600 l18 -23 -65 0 -65 0 -408 493 c-226 272 -421 498 -436 505 -22 11 -32 11
-54 0 -15 -7 -210 -233 -436 -505 l-408 -493 -66 0 c-62 0 -65 1 -51 18 8 9
232 279 497 600 266 320 486 582 491 582 5 0 224 -260 487 -577z m-807 441 c0
-3 -16 -26 -36 -50 l-36 -44 -359 0 c-346 0 -360 -1 -379 -20 -27 -27 -26 -81
1 -106 19 -18 44 -19 315 -24 l293 -5 -50 -57 -51 -58 -689 0 c-379 0 -689 3
-689 6 0 3 14 30 32 59 l32 54 267 3 c246 3 269 4 288 22 27 25 28 79 1 106
-19 19 -33 20 -235 20 -118 0 -215 4 -215 8 0 5 14 28 30 50 l30 42 725 0
c399 0 725 -3 725 -6z m2120 -36 c16 -22 30 -45 30 -50 0 -4 -323 -8 -719 -8
l-719 0 -36 44 c-20 24 -36 47 -36 50 0 3 326 6 725 6 l725 0 30 -42z m168
-262 c17 -30 32 -57 32 -60 0 -3 -310 -6 -688 -6 l-688 0 -30 33 c-16 17 -40
44 -53 60 l-24 27 709 0 709 0 33 -54z m-1589 -408 l371 -447 0 -428 c0 -456
1 -466 49 -489 29 -15 77 -1 91 26 6 11 10 179 10 424 l0 404 131 4 c129 3
131 3 155 31 25 30 31 75 14 107 -10 18 -3 19 149 22 140 3 162 5 180 22 27
25 28 79 1 106 -19 19 -33 20 -243 20 l-223 0 -34 43 c-20 23 -41 50 -49 60
-13 16 19 17 641 17 l654 0 32 -53 c18 -29 32 -56 32 -60 0 -4 -119 -7 -265
-7 -252 0 -266 -1 -285 -20 -27 -27 -26 -81 1 -106 16 -15 40 -20 105 -23 l84
-3 0 -1104 0 -1104 -540 0 -540 0 0 465 0 466 -25 24 c-13 14 -31 25 -39 25
-28 0 -64 -22 -75 -47 -8 -16 -11 -167 -11 -478 l0 -455 -140 0 -140 0 0 600
c0 662 1 651 -62 690 -32 19 -49 20 -408 20 -359 0 -376 -1 -408 -20 -63 -39
-62 -28 -62 -690 l0 -600 -140 0 -140 0 0 1056 0 1055 373 449 c204 248 375
449 379 447 4 -1 174 -203 377 -449z m-1129 186 c0 -3 -21 -30 -46 -60 l-46
-54 -664 0 c-365 0 -664 3 -664 6 0 3 15 30 32 60 l33 54 677 0 c373 0 678 -3
678 -6z m2888 -48 c17 -30 32 -57 32 -60 0 -3 -299 -6 -664 -6 l-664 0 -46 54
c-25 30 -46 57 -46 60 0 3 305 6 678 6 l677 0 33 -54z m-3119 -233 c-8 -10
-29 -37 -49 -60 l-34 -43 -638 0 c-351 0 -638 3 -638 7 0 4 14 31 32 60 l32
53 654 0 c622 0 654 -1 641 -17z m-219 -272 c-19 -36 -12 -86 16 -112 24 -22
34 -24 155 -27 l129 -4 0 -659 c0 -362 -1 -659 -2 -659 -2 0 -28 10 -58 21
-40 16 -76 22 -135 22 -116 -1 -181 -28 -265 -111 l-65 -65 -72 -2 c-55 -2
-76 1 -85 13 -24 28 -114 80 -168 96 -60 18 -148 21 -198 7 l-32 -10 0 755 0
754 395 0 c388 0 396 0 385 -19z m1520 -1611 l0 -580 -320 0 -320 0 0 580 0
580 320 0 320 0 0 -580z m-1308 19 c20 -11 49 -31 63 -46 24 -27 25 -33 25
-155 l0 -128 -366 0 -367 0 6 42 c11 79 72 134 145 130 26 -1 67 -3 92 -5 43
-2 45 -1 76 46 57 86 99 120 169 138 41 10 113 0 157 -22z m-764 -55 c29 -14
52 -30 52 -36 0 -5 -12 -25 -26 -43 -29 -39 -54 -112 -54 -162 l0 -33 -160 0
-160 0 0 55 c0 185 184 301 348 219z m850 -486 l3 -58 -681 0 -680 0 0 53 c0
30 3 57 7 60 3 4 308 6 677 5 l671 -3 3 -57z"/>
<path d="M2454 3306 c-87 -21 -154 -81 -197 -173 -20 -44 -22 -63 -22 -234 0
-278 -11 -269 325 -269 336 0 325 -9 325 269 0 171 -2 190 -22 234 -12 26 -32
60 -43 74 -74 95 -221 134 -366 99z m213 -162 c62 -47 68 -63 71 -220 l4 -144
-181 0 -181 0 0 123 c0 135 8 178 42 215 37 40 76 53 150 49 49 -2 75 -8 95
-23z"/>
<path d="M3767 2676 c-19 -18 -37 -48 -41 -66 -10 -53 -7 -761 4 -801 5 -19
24 -48 41 -65 l30 -29 194 0 194 0 30 29 c17 17 36 46 41 65 11 40 14 748 4
801 -4 18 -22 48 -41 66 l-34 34 -194 0 -194 0 -34 -34z m353 -466 l0 -350
-125 0 -125 0 0 350 0 350 125 0 125 0 0 -350z"/>
<path d="M897 2676 c-19 -18 -37 -48 -41 -66 -10 -53 -7 -761 4 -801 5 -19 24
-48 41 -65 l30 -29 194 0 194 0 30 29 c17 17 36 46 41 65 11 40 14 748 4 801
-4 18 -22 48 -41 66 l-34 34 -194 0 -194 0 -34 -34z m353 -466 l0 -350 -125 0
-125 0 0 350 0 350 125 0 125 0 0 -350z"/>
<path d="M2335 1590 c-37 -14 -48 -39 -53 -118 -5 -97 12 -153 51 -166 44 -16
80 3 95 49 20 59 11 190 -14 215 -24 23 -54 31 -79 20z"/>
</g>
</svg>
