<?xml version="1.0" standalone="no"?>
<!DOCTYPE svg PUBLIC "-//W3C//DTD SVG 20010904//EN"
 "http://www.w3.org/TR/2001/REC-SVG-20010904/DTD/svg10.dtd">
<svg version="1.0" xmlns="http://www.w3.org/2000/svg"
 width="512.000000pt" height="512.000000pt" viewBox="0 0 512.000000 512.000000"
 preserveAspectRatio="xMidYMid meet">

<g transform="translate(0.000000,512.000000) scale(0.100000,-0.100000)"
fill="#345a80" stroke="none">
<path d="M1120 4947 c-49 -16 -133 -102 -148 -153 -9 -31 -12 -255 -12 -898
l0 -856 -168 0 -167 0 -215 -86 c-121 -48 -223 -94 -232 -106 -17 -19 -18 -63
-18 -605 0 -349 4 -591 9 -602 6 -10 73 -59 149 -109 l139 -92 252 0 251 0 0
-536 c0 -392 3 -548 12 -578 16 -55 99 -138 154 -154 60 -17 2648 -17 2708 0
55 16 138 99 154 154 18 60 18 4408 0 4468 -16 55 -99 138 -154 154 -56 16
-2661 16 -2714 -1z m2695 -172 l25 -24 0 -2191 0 -2191 -25 -24 -24 -25 -1311
0 -1311 0 -24 25 -25 24 0 1015 0 1015 283 3 282 3 63 34 c70 38 101 70 140
145 22 43 26 64 26 136 1 78 -2 90 -33 148 -37 69 -79 109 -151 144 -43 22
-58 23 -327 26 l-283 3 0 855 0 855 25 24 24 25 1311 0 1311 0 24 -25z m-2129
-1921 c53 -39 69 -71 69 -134 0 -63 -16 -95 -69 -134 -26 -20 -43 -21 -438
-26 l-410 -5 -19 -24 c-10 -13 -19 -37 -19 -53 0 -113 -117 -238 -224 -238
-13 0 -16 -13 -16 -81 l0 -82 53 7 c104 14 227 90 278 173 13 20 33 61 45 92
l24 56 0 -402 0 -403 -227 0 -227 0 -93 61 -93 62 0 511 0 512 163 66 162 66
507 -1 c495 -2 507 -2 534 -23z"/>
<path d="M2085 4474 c-205 -92 -378 -175 -388 -187 -17 -19 -18 -43 -15 -356
4 -375 7 -395 85 -542 52 -100 98 -149 403 -420 234 -208 285 -249 310 -249
32 0 27 -4 390 319 218 194 274 254 324 350 77 147 80 168 84 542 3 313 2 336
-15 356 -21 25 -755 353 -787 352 -11 0 -187 -75 -391 -165z m719 -145 l316
-142 0 -256 c0 -335 -15 -404 -117 -543 -33 -45 -505 -473 -522 -473 -17 0
-503 439 -530 479 -98 143 -111 204 -111 532 l0 262 313 140 c171 77 317 141
323 141 7 1 154 -63 328 -140z"/>
<path d="M2677 3912 l-197 -197 -85 85 -85 85 -58 -58 -57 -57 126 -125 c111
-111 129 -125 159 -125 31 0 56 21 272 238 l238 237 -57 57 -58 58 -198 -198z"/>
<path d="M1440 2000 l0 -80 160 0 160 0 0 80 0 80 -160 0 -160 0 0 -80z"/>
<path d="M1920 2000 l0 -80 800 0 800 0 0 80 0 80 -800 0 -800 0 0 -80z"/>
<path d="M1440 1520 l0 -80 160 0 160 0 0 80 0 80 -160 0 -160 0 0 -80z"/>
<path d="M1920 1520 l0 -80 800 0 800 0 0 80 0 80 -800 0 -800 0 0 -80z"/>
<path d="M1440 1040 l0 -80 160 0 160 0 0 80 0 80 -160 0 -160 0 0 -80z"/>
<path d="M1920 1040 l0 -80 800 0 800 0 0 80 0 80 -800 0 -800 0 0 -80z"/>
<path d="M1440 560 l0 -80 160 0 160 0 0 80 0 80 -160 0 -160 0 0 -80z"/>
<path d="M1920 560 l0 -80 800 0 800 0 0 80 0 80 -800 0 -800 0 0 -80z"/>
<path d="M4320 3827 c-49 -16 -133 -102 -148 -153 -9 -32 -12 -367 -12 -1425
l1 -1384 84 -335 c90 -358 95 -370 155 -370 60 0 65 12 155 370 l84 335 1
1168 0 1167 80 0 80 0 0 -360 0 -360 80 0 80 0 0 415 0 416 -25 24 c-23 24
-29 25 -160 25 l-135 0 0 136 c0 163 -10 200 -67 264 -65 72 -158 97 -253 67z
m135 -172 c24 -23 25 -29 25 -160 l0 -135 -80 0 -80 0 0 135 c0 131 1 137 25
160 15 16 36 25 55 25 19 0 40 -9 55 -25z m25 -1575 l0 -1120 -80 0 -80 0 0
1120 0 1120 80 0 80 0 0 -1120z m-48 -1385 c-15 -58 -29 -105 -32 -105 -3 0
-17 47 -32 105 l-25 105 57 0 57 0 -25 -105z"/>
</g>
</svg>
