<?xml version="1.0" encoding="UTF-8"?> <svg xmlns="http://www.w3.org/2000/svg" viewBox="0 0 118.8 153.88"> <defs> <style>.cls-1{fill:#c52928;}.cls-2{fill:#e3332b;}</style> </defs> <g id="Слой_2" data-name="Слой 2"> <g id="Layer_1" data-name="Layer 1"> <path class="cls-1" d="M18.67,25.92h-.61a7.86,7.86,0,1,1,0-15.72h84.69V25.94h8.54V5.09A5.09,5.09,0,0,0,106.19,0H18.06A18.07,18.07,0,0,0,0,18.06V135.82a18.06,18.06,0,0,0,18.06,18.06h.61Z"></path> <path class="cls-2" d="M94.4,91.61c-3.55-2.9-5.21.13-6.82-1.18-.67-.55-.76-1.66-.36-3a1.52,1.52,0,0,1-1-.31,1.68,1.68,0,0,1-.54-1.3c-1.4,1.19-2.61,1.76-3.11,1.34a.74.74,0,0,1-.24-.57l-3,3.6c.25.67.28,1.19,0,1.5-1.09,1.33-6.55-.24-7.78,1.26-1.93,2.37.72,6.66-1.07,8.85l-1.63-1.33c.61,1.65.63,3-.09,3.9-2,2.47-9.09,0-15.78-5.45S42.57,87,44.6,84.56c.71-.87,2.06-1.12,3.8-.85l-1.63-1.33c1.8-2.2,6.53-.44,8.47-2.81,1.23-1.5-1.4-6.54-.31-7.87.27-.34.85-.4,1.65-.25L70.32,54.66C70,53.91,70,53.33,70.24,53c1.08-1.33,6.54.24,7.77-1.26,1.94-2.37-.72-6.66,1.08-8.85L81,44.46c-.76-1.83-.85-3.36-.07-4.3,2-2.48,9.09,0,15.78,5.44s10.49,11.93,8.46,14.4c-.77.94-2.28,1.17-4.23.78l1.92,1.57c-1.79,2.2-6.52.44-8.46,2.81-1.23,1.5,1.39,6.54.31,7.87-.26.31-.78.39-1.48.27L90,77.23a.77.77,0,0,1,.62.12c.51.42.19,1.71-.71,3.32a1.61,1.61,0,0,1,1.38.28,1.45,1.45,0,0,1,.5.9c1.2-.65,2.31-.77,3-.23,1.6,1.32-1,3.55,2.51,6.45,7.51,6.14,14.52,9.11,21.5,13.63V31a5.09,5.09,0,0,0-5.09-5.1l-95,0v128h95a5.09,5.09,0,0,0,5.09-5.09V116.11l-1.59-1.32C108.29,107.49,104,99.44,94.4,91.61Zm14.77,46.79c0,1.86-18.12,3.36-40.47,3.36s-40.46-1.5-40.46-3.36V124.22c0-.56,1.66-1.09,4.58-1.55v-2.06c0-1.86,16.07-3.36,35.88-3.36s35.89,1.5,35.89,3.36v2.06c2.92.46,4.58,1,4.58,1.55Z"></path> </g> </g> </svg> 