<svg id="Слой_1" data-name="Слой 1" xmlns="http://www.w3.org/2000/svg" xmlns:xlink="http://www.w3.org/1999/xlink" width="103px" height="48px" viewBox="0 0 103 48"><defs><style>.cls-1{fill:none;}.cls-2{clip-path:url(#clip-path);}.cls-3{fill:url(#Безымянный_градиент);}.cls-4{fill:url(#Безымянный_градиент_2);}.cls-5{fill:url(#Безымянный_градиент_3);}.cls-6{opacity:0.33;}.cls-7{fill:#21a038;}.cls-8{fill:#fff;}</style><clipPath id="clip-path"><rect class="cls-1" y="8" width="103" height="32"/></clipPath><linearGradient id="Безымянный_градиент" x1="11.99" y1="3.06" x2="88.95" y2="49.02" gradientTransform="matrix(1, 0, 0, -1, 0, 50)" gradientUnits="userSpaceOnUse"><stop offset="0" stop-color="#00d900"/><stop offset="0.09" stop-color="#0bda00"/><stop offset="0.25" stop-color="#2adb00"/><stop offset="0.46" stop-color="#5bde00"/><stop offset="0.71" stop-color="#9fe200"/><stop offset="0.99" stop-color="#f5e700"/><stop offset="1" stop-color="#f6e700"/></linearGradient><linearGradient id="Безымянный_градиент_2" x1="77.41" y1="36.39" x2="104.48" y2="13.24" gradientTransform="matrix(1, 0, 0, -1, 0, 50)" gradientUnits="userSpaceOnUse"><stop offset="0.07" stop-color="#eef3ff"/><stop offset="0.76" stop-color="#fff"/></linearGradient><radialGradient id="Безымянный_градиент_3" cx="-866.04" cy="540.38" r="1" gradientTransform="matrix(21.64, 0, 0, -20.92, 18824.61, 11322.02)" gradientUnits="userSpaceOnUse"><stop offset="0" stop-color="#fff"/><stop offset="0.99" stop-color="#fff" stop-opacity="0"/></radialGradient></defs><g class="cls-2"><path class="cls-3" d="M11.19,34.78H89.75A11,11,0,0,0,100.94,24,11,11,0,0,0,89.75,13.14H11.19A11,11,0,0,0,0,24,11,11,0,0,0,11.19,34.78Z"/><rect class="cls-1" x="75.63" y="10.42" width="28.51" height="27.56"/><path class="cls-4" d="M89.55,12.87A11.32,11.32,0,0,1,101.06,24a11.51,11.51,0,0,1-23,0A11.32,11.32,0,0,1,89.55,12.87Z"/><path class="cls-5" d="M89.55,35.13A11.33,11.33,0,0,1,78.05,24a11.51,11.51,0,0,1,23,0A11.33,11.33,0,0,1,89.55,35.13Zm0-22A11.08,11.08,0,0,0,78.3,24a11.26,11.26,0,0,0,22.51,0A11.09,11.09,0,0,0,89.55,13.13Z"/><g class="cls-6"><rect class="cls-1" x="72.99" y="8" width="33.1" height="32"/></g><path class="cls-7" d="M85.21,20.25l-1,.61v-.81l1.23-.77H86v4.66h-.8Z"/><path class="cls-7" d="M88.76,24a2.48,2.48,0,0,1-.75-.1,1.64,1.64,0,0,1-.58-.27,1.36,1.36,0,0,1-.36-.43,1.37,1.37,0,0,1-.13-.58,1.41,1.41,0,0,1,0-.35.94.94,0,0,1,.39-.6,1.16,1.16,0,0,1,.42-.19,1.28,1.28,0,0,1-.27-.11,1.15,1.15,0,0,1-.23-.21.89.89,0,0,1-.15-.29,1.12,1.12,0,0,1-.06-.38,1.08,1.08,0,0,1,.42-.9,2,2,0,0,1,1.24-.33,1.9,1.9,0,0,1,1.21.32,1,1,0,0,1,.4.86,1.12,1.12,0,0,1-.18.64.87.87,0,0,1-.52.39,1.07,1.07,0,0,1,.67.39,1.15,1.15,0,0,1,.23.74,1.31,1.31,0,0,1-.12.56,1.34,1.34,0,0,1-.34.45,1.74,1.74,0,0,1-.56.29A2.68,2.68,0,0,1,88.76,24Zm0-.78a1.28,1.28,0,0,0,.74-.17.63.63,0,0,0,.24-.54.56.56,0,0,0-.26-.52,1.42,1.42,0,0,0-.72-.16c-.66,0-1,.23-1,.67a.67.67,0,0,0,.08.33.5.5,0,0,0,.2.23.88.88,0,0,0,.31.13A2.5,2.5,0,0,0,88.76,23.22Zm0-2a1,1,0,0,0,.63-.16.55.55,0,0,0,.19-.45.52.52,0,0,0-.18-.43,1.51,1.51,0,0,0-1.29,0,.5.5,0,0,0-.2.44.51.51,0,0,0,.2.41A1,1,0,0,0,88.74,21.21Z"/><path class="cls-7" d="M91.14,21.64a3.46,3.46,0,0,1,.15-1.09,1.81,1.81,0,0,1,.39-.73,1.37,1.37,0,0,1,.58-.41,1.82,1.82,0,0,1,.7-.14,1.92,1.92,0,0,1,.77.15,1.55,1.55,0,0,1,.58.44,2.05,2.05,0,0,1,.37.74,3.56,3.56,0,0,1,.13,1,3.52,3.52,0,0,1-.15,1.1,2,2,0,0,1-.39.73,1.54,1.54,0,0,1-.58.41A2.08,2.08,0,0,1,93,24a1.87,1.87,0,0,1-.76-.15,1.47,1.47,0,0,1-.58-.44,2.05,2.05,0,0,1-.37-.74A3.93,3.93,0,0,1,91.14,21.64Zm.82,0a3.15,3.15,0,0,0,.07.74,1.61,1.61,0,0,0,.2.49.91.91,0,0,0,.32.27,1,1,0,0,0,.43.09,1,1,0,0,0,.43-.09.69.69,0,0,0,.32-.27,1.17,1.17,0,0,0,.19-.49,3.15,3.15,0,0,0,.07-.74,3.71,3.71,0,0,0-.07-.74,1.48,1.48,0,0,0-.21-.49.83.83,0,0,0-.32-.27,1.13,1.13,0,0,0-.86,0,.91.91,0,0,0-.32.27,1.47,1.47,0,0,0-.19.49A4.06,4.06,0,0,0,92,21.64Z"/><path class="cls-7" d="M86.52,26.12H85.41l0,.42a6.74,6.74,0,0,1-.14,1.22,2.07,2.07,0,0,1-.26.67.67.67,0,0,1-.35.29,1.32,1.32,0,0,1-.39.06h-.19l-.15,0V28a.57.57,0,0,0,.18,0,.54.54,0,0,0,.21-.05c.06,0,.12-.1.17-.22a2.35,2.35,0,0,0,.13-.54,9.89,9.89,0,0,0,.07-1l0-.72h2.6v3.29h-.79Z"/><path class="cls-7" d="M91.09,28.41a.61.61,0,0,1-.17.14,1.46,1.46,0,0,1-.28.13,1.82,1.82,0,0,1-.37.09,1.91,1.91,0,0,1-.43,0,1.86,1.86,0,0,1-1.32-.43,1.72,1.72,0,0,1-.47-1.3,2.11,2.11,0,0,1,.12-.73,1.55,1.55,0,0,1,.36-.53,1.47,1.47,0,0,1,.55-.33,2,2,0,0,1,.71-.11A1.57,1.57,0,0,1,91,25.8a1.64,1.64,0,0,1,.42,1.2v.32H88.84c.06.55.41.82,1,.82a1.81,1.81,0,0,0,.78-.15,1.21,1.21,0,0,0,.45-.37v.79Zm-1.32-2.36a1,1,0,0,0-.62.18.83.83,0,0,0-.3.54h1.72a.74.74,0,0,0-.22-.53A.88.88,0,0,0,89.77,26.05Z"/><path class="cls-7" d="M92.88,26.12H91.79v-.67h3v.67h-1.1v2.62h-.79V26.12Z"/><path class="cls-8" d="M36.64,22.27l1.3-.92H33.6V26.9h4.34V26h-3.1V24.55h2.64v-.92H34.84V22.27Z"/><path class="cls-8" d="M30.33,23.51H28.82V22.27h2.4l1.3-.92H27.58V26.9h2.58c1.46,0,2.29-.64,2.29-1.75S31.69,23.51,30.33,23.51ZM30.11,26H28.82V24.43h1.29c.78,0,1.15.26,1.15.77S30.87,26,30.11,26Z"/><path class="cls-8" d="M41.46,21.35H39.09V26.9h1.24V25.33h1.12c1.51,0,2.45-.77,2.45-2S43,21.35,41.46,21.35Zm0,3h-1.1V22.27h1.1c.79,0,1.23.38,1.23,1.07S42.22,24.4,41.43,24.4Z"/><path class="cls-8" d="M25.45,25.7a2.22,2.22,0,0,1-1.06.26,1.84,1.84,0,1,1,0-3.67,1.88,1.88,0,0,1,1.12.34L26.4,22,26.34,22a3,3,0,0,0-2-.68,3.24,3.24,0,0,0-2.2.79,2.73,2.73,0,0,0-.87,2,2.8,2.8,0,0,0,.87,2.06,3.16,3.16,0,0,0,2.19.82,3,3,0,0,0,2.2-.85l-.8-.57Z"/><path class="cls-8" d="M18.4,24.12a4.39,4.39,0,0,0-.07-.82l-1,.73v.09a3.67,3.67,0,1,1-3.67-3.54,3.74,3.74,0,0,1,2.07.62l.93-.67a4.85,4.85,0,0,0-3-1,4.61,4.61,0,1,0,0,9.22A4.69,4.69,0,0,0,18.4,24.12Z"/><path class="cls-8" d="M17.41,21.3a5.06,5.06,0,0,1,.57.92l-4.35,3.1-1.81-1.1V22.89L13.63,24Z"/><path class="cls-8" d="M49.23,23.51H47.72V22.27H51v-.92H46.49V26.9h2.58c1.45,0,2.28-.64,2.28-1.75S50.6,23.51,49.23,23.51ZM49,26h-1.3V24.43H49c.78,0,1.15.26,1.15.77S49.78,26,49,26Z"/><path class="cls-8" d="M66.66,26.9H65.4V21.35h1.26v2.33h.68l1.85-2.33h1.42L68.42,24,71,26.9H69.3l-1.87-2.19h-.77Z"/><path class="cls-8" d="M56.21,25.82H53.56l-.45,1.08H51.77l2.49-5.55H55.6l2.45,5.55H56.67Zm-.41-1-.91-2.16L54,24.81Z"/><path class="cls-8" d="M60.23,21.35v2.31h2.6V21.35h1.3V26.9h-1.3V24.71h-2.6V26.9H58.94V21.35Z"/></g></svg>